<?xml version="1.0" standalone="no"?>
<!DOCTYPE svg PUBLIC "-//W3C//DTD SVG 20010904//EN"
 "http://www.w3.org/TR/2001/REC-SVG-20010904/DTD/svg10.dtd">
<svg version="1.0" xmlns="http://www.w3.org/2000/svg"
 width="1024.000000pt" height="1024.000000pt" viewBox="0 0 1024.000000 1024.000000"
 preserveAspectRatio="xMidYMid meet">
<metadata>
Created by potrace 1.14, written by Peter Selinger 2001-2017
</metadata>
<g transform="translate(0.000000,1024.000000) scale(0.100000,-0.100000)"
fill="#000000" stroke="none">
<path d="M5585 9023 c-18 -18 -16 -32 9 -47 13 -9 20 -7 31 7 25 35 -10 70
-40 40z m27 -18 c0 -5 -5 -11 -11 -13 -6 -2 -11 4 -11 13 0 9 5 15 11 13 6 -2
11 -8 11 -13z"/>
<path d="M4874 9019 c-3 -6 0 -17 8 -25 13 -13 16 -13 27 0 7 8 10 20 6 26 -8
13 -32 13 -41 -1z"/>
<path d="M5152 8995 c0 -16 2 -22 5 -12 2 9 2 23 0 30 -3 6 -5 -1 -5 -18z"/>
<path d="M4663 8994 c-3 -8 2 -23 11 -32 15 -15 17 -15 32 0 21 21 11 48 -16
48 -11 0 -23 -7 -27 -16z"/>
<path d="M4177 8922 c-60 -66 -26 -162 57 -162 84 1 124 108 59 160 -32 25
-94 27 -116 2z m112 -32 c14 -22 14 -23 0 -13 -12 10 -22 8 -52 -13 -20 -13
-37 -30 -37 -36 0 -7 -5 -6 -15 2 -21 17 -19 46 6 71 28 28 76 22 98 -11z"/>
<path d="M6054 8896 c-9 -24 3 -46 26 -46 17 0 21 5 18 27 -3 31 -34 44 -44
19z"/>
<path d="M3752 8798 c-20 -20 -14 -37 18 -53 17 -9 30 -20 30 -25 0 -5 27 -63
59 -129 l59 -120 -119 -67 c-66 -36 -118 -68 -116 -70 2 -2 57 26 121 62 112
63 118 65 132 48 12 -16 12 -13 -1 14 -8 17 -13 32 -10 32 3 0 -24 57 -59 128
-50 100 -62 134 -59 160 5 29 3 32 -19 32 -13 0 -29 -5 -36 -12z"/>
<path d="M6473 8785 c-66 -28 -82 -113 -32 -169 l31 -35 -34 -63 c-18 -35 -33
-64 -33 -65 -1 -1 -40 18 -87 43 -383 198 -835 298 -1278 280 -225 -8 -466
-51 -690 -121 -96 -31 -370 -142 -385 -157 -10 -10 30 5 175 65 160 66 357
124 570 168 189 38 691 38 865 -1 22 -5 85 -18 140 -30 335 -72 750 -267 1034
-487 2 -1 -4 -13 -15 -25 l-19 -23 22 18 c12 11 27 16 32 12 6 -3 11 -3 11 2
0 12 -16 35 -24 34 -3 -1 -30 16 -59 38 -52 40 -266 171 -278 171 -3 0 10 31
30 70 35 68 37 70 74 70 29 0 46 7 67 29 55 54 50 128 -9 168 -39 26 -63 28
-108 8z m79 -32 c30 -27 21 -33 -41 -31 -51 3 -58 5 -50 20 16 31 63 37 91 11z"/>
<path d="M7026 8761 c-8 -13 20 -45 32 -37 20 12 14 46 -7 46 -11 0 -22 -4
-25 -9z"/>
<path d="M7564 8716 c-26 -26 -34 -42 -34 -71 0 -20 4 -45 10 -55 6 -12 6 -29
-2 -52 -11 -33 -170 -274 -271 -409 l-53 -72 -56 -2 c-77 -2 -131 -38 -164
-108 -13 -29 -24 -65 -24 -82 1 -71 70 -160 144 -185 l35 -11 3 -177 c3 -150
-4 -368 -10 -323 -1 8 -4 12 -7 10 -2 -3 1 -19 7 -36 10 -26 9 -35 -5 -56 -22
-33 -228 -220 -235 -212 -3 3 -16 -2 -30 -11 -13 -9 -40 -22 -60 -29 -22 -8
-29 -14 -18 -14 11 -1 40 11 65 25 l46 27 -60 -55 c-45 -42 -61 -52 -63 -39
-2 9 -12 44 -22 78 -18 63 -18 63 3 95 12 17 35 40 50 52 27 20 29 20 94 3 40
-11 70 -14 76 -8 12 12 -27 163 -59 227 -14 28 -52 80 -83 115 -32 35 -65 78
-74 94 -22 43 -174 216 -265 303 -244 230 -572 411 -889 490 -76 19 -103 30
-103 41 0 14 -2 14 -9 2 -8 -13 -20 -13 -77 -2 -106 19 -356 26 -485 12 -129
-14 -296 -51 -414 -92 -138 -48 -335 -141 -335 -159 0 -6 26 3 58 19 208 107
485 191 699 212 131 13 374 7 466 -12 55 -11 68 -21 47 -34 -14 -9 -12 -47 4
-67 15 -21 47 -23 64 -6 16 16 15 61 0 77 -11 10 -7 11 17 6 242 -54 473 -154
695 -299 174 -114 400 -334 493 -479 10 -16 17 -30 15 -33 -2 -2 -22 1 -44 7
-49 14 -151 6 -190 -14 l-31 -16 -84 86 c-124 126 -271 233 -430 312 -213 106
-438 168 -700 192 -419 39 -944 -136 -1232 -409 l-58 -55 -35 34 c-40 39 -74
104 -74 143 0 38 -17 66 -41 66 -11 0 -60 -40 -120 -99 l-100 -100 -27 46
c-15 24 -64 105 -109 179 -46 74 -115 191 -155 262 -84 149 -186 309 -236 370
-43 52 -142 125 -194 141 -21 7 -38 17 -38 22 0 5 -11 15 -25 21 -21 9 -28 8
-45 -7 -50 -45 9 -101 68 -64 14 9 29 6 72 -16 99 -50 198 -169 320 -383 l53
-93 -34 -37 c-19 -20 -45 -51 -59 -68 -14 -17 0 -4 30 28 31 32 60 58 65 58 6
0 45 -57 88 -127 42 -71 108 -178 147 -240 l69 -112 -24 -53 c-41 -90 -58
-174 -52 -258 7 -95 20 -136 57 -191 37 -54 37 -71 3 -103 -24 -23 -25 -28
-14 -52 14 -31 7 -44 -14 -23 -7 8 -48 81 -91 163 -109 209 -148 248 -249 249
-62 1 -118 -27 -169 -83 -47 -52 -66 -96 -66 -153 0 -50 29 -142 61 -194 15
-24 18 -38 11 -45 -15 -15 -24 -7 -131 126 -55 68 -111 132 -125 142 l-25 19
14 75 c8 41 14 84 14 94 2 40 -11 5 -27 -80 l-18 -87 -105 124 c-139 164 -258
312 -351 435 -81 107 -117 134 -181 134 -47 0 -97 -36 -125 -90 -28 -54 -24
-95 12 -150 30 -46 79 -70 144 -70 50 0 50 0 123 -82 41 -45 89 -98 107 -117
34 -37 250 -304 359 -446 202 -261 246 -321 263 -363 10 -26 34 -83 54 -127
20 -44 29 -71 21 -61 -15 20 -15 20 -15 0 0 -13 -9 -4 -27 26 -15 25 -45 69
-67 99 -23 29 -83 110 -133 179 -129 176 -164 212 -208 212 -32 0 -45 -10
-119 -86 -90 -93 -116 -103 -127 -49 -6 27 -7 27 -8 5 -1 -16 12 -37 42 -65
23 -22 71 -76 107 -120 126 -154 141 -168 189 -168 39 0 45 -3 68 -41 15 -22
61 -88 103 -146 42 -58 93 -131 113 -162 35 -56 40 -93 11 -81 -9 3 -14 -2
-14 -16 0 -12 -4 -21 -10 -21 -6 0 -6 -10 0 -27 10 -28 10 -28 -7 -7 -109 131
-230 280 -280 346 -99 129 -143 168 -191 168 -11 0 -31 19 -51 50 -64 99 -116
112 -203 52 -155 -106 -202 -208 -141 -299 52 -76 657 -742 676 -744 22 -2 42
2 70 16 25 13 28 13 23 -1 -3 -8 2 -23 12 -34 56 -61 65 -86 51 -134 l-12 -41
-28 28 c-20 20 -35 26 -48 22 -16 -5 -19 -2 -16 13 2 10 -5 24 -16 30 -22 14
-25 2 -8 -29 8 -15 6 -25 -9 -44 l-19 -24 -109 110 c-120 120 -183 174 -166
143 6 -11 72 -79 146 -153 75 -74 136 -137 136 -141 0 -3 -5 -11 -11 -17 -9
-9 -7 -11 8 -7 12 3 24 1 27 -5 11 -17 62 -13 77 5 12 14 14 14 25 -1 10 -13
6 -22 -24 -51 -32 -31 -72 -46 -72 -26 0 12 -48 67 -135 156 -44 44 -116 121
-160 170 -43 49 -93 97 -109 107 -64 39 -159 15 -202 -51 -59 -89 -40 -147 94
-296 51 -56 92 -105 92 -109 0 -4 -18 -5 -40 -3 -53 5 -53 -17 0 -26 23 -3 53
-18 70 -34 28 -25 30 -30 20 -62 -5 -19 -10 -59 -10 -87 0 -52 0 -53 -19 -34
-10 10 -24 20 -30 22 -6 2 -22 34 -35 71 -14 37 -29 76 -35 85 -16 28 -14 -6
4 -57 8 -23 15 -44 15 -46 0 -10 -28 -2 -49 12 -18 13 -20 18 -10 25 15 9 4
15 -41 22 -22 3 -23 4 -6 12 40 18 74 61 69 88 -5 23 -13 28 -65 38 -51 10
-59 15 -56 33 4 29 35 32 69 7 16 -12 29 -17 29 -12 0 13 -53 41 -78 41 -11 0
-24 -6 -29 -12 -14 -19 -16 -139 -3 -173 21 -55 78 -101 144 -114 17 -4 30
-14 32 -24 1 -10 10 -29 19 -43 14 -21 19 -23 31 -13 13 10 17 10 24 -1 5 -8
7 -18 4 -22 -3 -4 1 -18 8 -30 6 -13 13 -40 15 -61 2 -31 0 -36 -10 -25 -29
31 -96 116 -121 155 -15 22 -38 44 -50 47 -32 8 -141 125 -279 298 -63 80
-128 155 -145 166 -41 30 -90 28 -138 -4 l-38 -26 -32 36 c-18 20 -48 67 -68
104 -28 52 -35 61 -36 41 0 -25 39 -94 92 -161 24 -30 27 -41 19 -57 -17 -30
-13 -104 6 -131 29 -43 274 -343 317 -387 22 -24 38 -43 35 -43 -3 0 -53 16
-110 36 -92 32 -121 37 -254 45 -188 11 -270 5 -290 -24 -8 -12 -15 -35 -15
-51 l0 -29 -65 7 c-124 13 -123 12 -118 60 4 34 1 48 -18 70 -55 63 -139 20
-139 -70 0 -29 -4 -44 -13 -44 -25 0 -82 -51 -109 -98 -34 -58 -38 -144 -9
-207 17 -38 83 -107 112 -117 10 -3 15 -38 20 -129 4 -68 13 -141 20 -162 29
-86 137 -169 264 -202 39 -10 106 -15 197 -15 l138 0 0 -72 c1 -82 17 -122 65
-160 23 -18 46 -24 109 -28 l80 -5 7 -35 c4 -19 12 -59 18 -89 6 -30 9 -56 7
-58 -8 -8 -46 17 -107 72 -52 47 -67 55 -101 55 -22 0 -48 -5 -59 -10 -27 -15
-49 -62 -49 -107 -1 -36 7 -45 117 -152 65 -63 106 -104 91 -91 l-27 23 4 -38
c3 -20 8 -42 11 -49 3 -6 -3 -1 -13 12 -71 87 -173 80 -173 -11 0 -60 31 -73
243 -103 39 -6 45 -19 31 -70 -6 -21 -6 -21 -29 2 -63 63 -167 -17 -124 -95
12 -21 23 -27 61 -29 39 -3 49 1 66 23 l20 26 12 -53 c9 -40 9 -68 1 -112 -14
-75 -14 -208 0 -261 6 -22 14 -101 18 -175 6 -97 14 -155 30 -203 37 -110 123
-211 236 -277 22 -13 41 -24 43 -26 2 -1 -8 -13 -22 -27 -47 -47 -25 -117 36
-117 13 0 34 10 45 23 51 56 37 95 -49 136 -66 31 -163 99 -155 108 3 2 18 -4
33 -14 21 -13 53 -19 133 -22 l105 -3 48 -48 c27 -26 71 -63 98 -81 45 -31 50
-37 50 -74 1 -112 119 -189 207 -135 44 27 67 65 73 124 6 59 14 63 128 65 85
1 127 -14 165 -58 35 -42 34 -65 -3 -108 -42 -47 -43 -112 -2 -153 83 -82 207
-16 187 100 -7 43 -34 72 -88 95 -20 8 -37 22 -37 30 0 23 -71 96 -107 112
-38 15 -149 17 -213 2 -39 -9 -46 -8 -60 9 -21 28 -73 52 -110 52 -36 0 -65
-13 -100 -46 l-26 -24 -50 34 c-28 19 -66 49 -84 68 l-33 33 307 3 307 2 80
-70 c115 -102 192 -156 284 -200 77 -38 290 -100 340 -100 18 0 30 -10 44 -38
20 -39 81 -101 123 -123 12 -7 70 -30 128 -51 l105 -38 -120 3 c-162 4 -199
22 -312 152 -26 30 -63 32 -87 6 -24 -26 -17 -70 15 -94 24 -17 31 -18 64 -7
33 11 39 10 59 -9 12 -11 40 -30 62 -41 l39 -19 -191 -1 c-105 0 -306 -3 -447
-7 -211 -5 -257 -9 -257 -20 0 -8 8 -13 18 -12 9 2 33 0 52 -4 19 -3 92 -9
162 -12 178 -9 3656 -12 3918 -4 269 9 452 19 464 27 30 18 -88 25 -523 30
l-484 5 79 41 79 41 5 70 5 70 34 -3 c37 -3 56 14 39 35 -12 15 15 7 119 -33
74 -29 143 -30 199 -5 46 21 109 89 124 136 9 28 18 35 56 44 24 6 51 20 60
30 54 65 115 122 124 116 7 -4 10 -36 8 -83 l-3 -77 132 -67 131 -68 45 20
c52 23 54 27 62 112 3 35 8 77 10 93 l5 30 87 -4 c154 -6 256 32 358 134 100
100 134 216 135 458 l0 138 39 52 c47 62 105 179 122 248 11 42 16 49 37 49
14 0 38 14 59 35 31 31 34 40 30 73 -3 20 -7 46 -9 58 -4 29 143 213 226 281
36 29 33 77 -6 106 -34 26 -73 16 -93 -23 -21 -40 -19 -57 9 -85 13 -13 21
-25 18 -27 -4 -2 -20 -23 -36 -48 -16 -25 -56 -75 -89 -112 -52 -58 -62 -65
-81 -57 -20 9 -21 16 -18 122 2 62 -2 139 -8 172 -16 81 -60 183 -105 245 -21
28 -35 54 -31 57 4 4 39 26 79 50 90 53 81 55 -21 4 l-77 -39 -44 40 c-55 48
-155 105 -219 124 -26 8 -85 18 -132 23 l-85 8 39 17 c22 10 81 26 132 35 78
15 108 27 186 73 51 30 121 70 156 88 35 19 70 45 79 61 9 15 28 31 42 34 60
15 81 75 40 116 -17 17 -29 20 -60 16 -41 -5 -48 0 -26 22 9 9 11 53 9 165
l-2 154 24 6 c30 8 119 87 146 132 47 75 53 120 57 444 l3 305 59 3 c57 3 59
4 65 34 3 17 6 107 6 201 l0 170 84 -129 c103 -161 174 -262 188 -270 8 -5 9
15 5 71 -4 43 -7 152 -7 242 0 142 -2 164 -16 170 -42 16 -68 -44 -26 -62 21
-10 22 -13 22 -167 0 -87 -3 -158 -8 -158 -4 0 -61 79 -127 175 l-119 175
-306 0 -306 0 -45 -47 c-25 -27 -72 -79 -105 -118 -32 -38 -101 -113 -152
-167 -59 -61 -89 -99 -82 -103 7 -4 30 10 54 34 l42 41 93 0 c114 0 161 13
206 57 23 22 44 33 64 33 43 0 72 40 61 82 -12 40 -14 42 -57 42 -41 0 -76
-34 -71 -69 1 -12 -5 -30 -15 -39 -9 -10 -14 -22 -11 -28 4 -7 2 -8 -4 -4 -8
5 -8 14 1 33 9 21 9 27 -1 31 -6 2 -12 8 -12 14 0 5 -6 16 -14 24 -11 11 -16
11 -19 1 -4 -9 -8 -9 -15 2 -6 8 -15 10 -23 5 -16 -9 5 18 76 99 l49 57 281
-2 280 -3 3 -197 2 -198 -50 0 -50 0 0 164 0 164 -31 6 c-40 8 -422 8 -443 0
-9 -3 -16 -11 -16 -18 0 -8 62 -10 230 -8 l230 3 0 -151 c0 -82 0 -153 0 -157
0 -5 -84 -9 -187 -11 -151 -2 -198 1 -241 14 -98 30 -155 3 -327 -156 -115
-106 -351 -305 -319 -269 12 13 34 44 50 69 16 25 54 74 86 108 68 75 86 119
68 163 -18 42 -47 59 -101 59 -77 0 -149 -52 -164 -119 -5 -24 -12 -30 -41
-33 -19 -2 -34 -2 -34 0 0 12 33 63 38 58 10 -10 62 46 62 67 0 17 -5 19 -47
14 -27 -2 -57 -8 -68 -12 -19 -8 -19 -8 -2 12 11 12 36 23 60 26 23 3 83 11
132 18 l90 12 58 57 c50 50 57 61 57 97 0 46 -20 70 -63 75 -28 3 -25 8 110
169 76 91 160 199 188 240 60 89 117 165 209 279 162 199 179 256 108 347 -53
67 -150 153 -191 170 -61 26 -175 -18 -206 -77 -21 -41 -19 -62 13 -106 43
-59 43 -61 24 -75 -16 -13 -16 -13 -2 6 14 19 14 19 -2 6 -19 -14 -15 -31 6
-31 7 0 21 9 30 19 20 22 13 41 -28 80 -52 48 -27 111 56 146 80 33 119 14
241 -113 76 -79 78 -97 15 -117 -28 -10 -41 -26 -83 -106 -126 -237 -166 -255
-289 -132 -64 63 -65 66 -52 91 8 15 28 40 45 56 17 17 31 38 31 47 0 23 -6
17 -183 -184 -94 -107 -146 -159 -165 -163 -46 -11 -75 -38 -222 -205 -78 -88
-144 -159 -145 -157 -17 18 -44 82 -39 90 5 8 1 9 -10 5 -14 -6 -13 -1 6 31
13 20 52 85 88 144 59 99 66 106 90 101 45 -8 96 22 196 119 145 140 244 262
244 302 0 33 -26 69 -65 92 -19 10 -18 12 3 40 12 16 75 88 140 161 80 90 122
130 132 126 8 -3 29 -8 47 -11 65 -9 110 81 64 127 -19 19 -19 20 -1 38 26 25
138 149 182 202 l37 44 44 -17 c55 -21 92 -20 142 3 78 36 125 111 125 199 0
90 -76 171 -169 180 -159 15 -268 -139 -202 -284 10 -23 24 -45 30 -48 18 -11
13 -29 -16 -61 -15 -17 -45 -50 -67 -75 -23 -25 -63 -71 -90 -102 -27 -32 -53
-55 -58 -52 -16 10 -65 -17 -77 -42 -6 -14 -11 -38 -11 -53 0 -16 -9 -36 -21
-47 -12 -10 -80 -86 -152 -169 -71 -82 -144 -162 -161 -176 -17 -15 -60 -63
-95 -108 -35 -44 -65 -81 -67 -81 -1 0 22 47 53 105 109 210 133 311 94 400
-17 39 -19 51 -9 64 7 9 41 51 76 94 35 42 58 77 50 77 -7 0 -44 -39 -82 -86
l-69 -85 -31 30 c-41 39 -113 70 -167 72 -62 2 -151 -35 -189 -78 -35 -40 -47
-64 -65 -143 -8 -30 -32 -95 -54 -143 -46 -99 -190 -369 -202 -377 -4 -3 -21
-31 -37 -62 l-30 -56 -24 25 c-17 18 -31 24 -55 21 -17 -2 -29 0 -27 4 9 14
67 8 86 -9 16 -15 21 -15 28 -3 13 21 -8 41 -36 34 -15 -4 -24 -2 -24 6 0 8
-6 9 -17 5 -26 -11 -73 -13 -73 -3 0 4 10 8 23 8 30 0 57 30 95 105 16 33 62
96 101 140 83 92 135 188 156 290 17 81 19 168 5 195 -8 16 6 35 101 127 61
59 114 109 118 111 4 1 27 -39 50 -90 26 -58 39 -80 35 -58 -3 19 -21 64 -40
99 l-33 64 99 103 c54 57 149 162 211 234 79 92 115 128 122 121 16 -16 53
-13 67 3 6 8 10 25 8 38 -2 17 -10 24 -33 26 -27 2 -38 -7 -108 -90 -154 -183
-613 -648 -640 -648 -3 0 -6 119 -6 265 l-1 265 37 15 c31 13 38 13 45 2 4 -8
17 -25 28 -38 l22 -24 -21 32 c-22 33 -28 63 -11 63 5 0 21 20 35 45 37 63 37
137 1 199 -15 25 -34 50 -44 55 -46 27 -46 26 0 87 25 33 82 113 128 179 105
153 159 209 237 246 73 35 93 59 93 112 0 52 -52 107 -100 107 -23 0 -41 -9
-66 -34z m119 -13 c24 -23 21 -60 -8 -88 -44 -45 -115 -20 -115 40 0 65 73 93
123 48z m-4850 -119 c11 -11 -5 -34 -24 -34 -18 0 -26 20 -12 33 8 9 28 9 36
1z m2685 -392 c3 -9 -3 -13 -19 -10 -12 1 -24 9 -27 16 -3 9 3 13 19 10 12 -1
24 -9 27 -16z m1722 -193 c50 -31 60 -48 53 -89 -3 -19 -7 -37 -9 -39 -2 -3
-23 17 -47 42 -61 67 -110 62 -161 -19 -24 -37 -30 -42 -47 -34 -34 19 -18 75
37 127 31 29 42 33 87 33 35 0 63 -7 87 -21z m-1910 -59 c159 -20 363 -70 490
-120 97 -38 283 -140 358 -196 167 -126 331 -310 420 -473 86 -159 162 -405
194 -626 19 -137 16 -505 -5 -643 -17 -114 -88 -346 -213 -700 -112 -314 -145
-418 -163 -512 -27 -133 -35 -250 -23 -307 6 -26 16 -95 22 -153 18 -170 88
-340 205 -505 178 -250 413 -396 698 -434 220 -30 455 14 632 117 76 45 84 47
155 47 58 0 85 -5 123 -23 66 -33 141 -112 179 -189 27 -55 32 -79 35 -151 l4
-87 -19 38 c-20 41 -32 39 -32 -4 0 -15 -5 -40 -11 -56 -6 -15 -17 -54 -25
-86 -15 -60 -52 -143 -60 -134 -3 3 1 16 9 29 28 45 36 94 40 258 4 191 0 207
-78 279 -94 86 -154 92 -241 25 -108 -86 -257 -137 -446 -156 -139 -13 -309 0
-428 33 -98 27 -250 99 -320 151 -89 67 -228 207 -282 286 -28 39 -52 72 -54
72 -12 0 44 -90 93 -148 136 -162 262 -269 386 -327 37 -17 64 -35 60 -40 -5
-4 -3 -5 3 -2 14 8 85 -14 78 -24 -2 -5 -11 -6 -19 -3 -8 3 -24 -3 -36 -14
-12 -12 -39 -24 -60 -27 -22 -4 -39 -11 -39 -16 0 -5 -9 -9 -19 -9 -11 0 -21
-6 -23 -12 -8 -22 -239 -26 -321 -6 -38 9 -71 19 -74 22 -8 7 7 26 20 26 7 0
6 -4 -3 -11 -13 -9 -13 -10 0 -6 8 2 15 8 16 13 0 5 8 25 18 45 23 46 15 101
-19 135 -33 33 -102 34 -133 2 -45 -49 -47 -114 -6 -159 10 -11 12 -19 6 -19
-6 0 -13 6 -15 13 -4 9 -6 9 -6 -1 -1 -7 9 -17 22 -22 12 -5 16 -9 9 -9 -8 -1
-10 -6 -6 -13 5 -10 4 -10 -6 -1 -10 9 -17 10 -27 2 -9 -8 -17 -8 -27 0 -13
11 -249 23 -273 14 -7 -3 -13 -14 -13 -24 0 -10 -6 -19 -14 -19 -7 0 -16 -10
-19 -22 -5 -16 6 -35 41 -76 26 -30 60 -70 75 -91 15 -20 42 -49 60 -66 18
-16 62 -57 97 -89 54 -49 57 -54 20 -28 -83 59 -224 193 -345 329 -135 151
-281 386 -360 576 -40 97 -62 128 -44 61 33 -118 192 -413 301 -558 132 -175
305 -353 448 -462 106 -81 341 -198 508 -253 81 -27 165 -46 245 -57 265 -35
652 9 845 97 36 16 67 27 69 25 16 -15 -211 -94 -353 -123 -114 -23 -552 -26
-649 -4 -109 24 -278 82 -385 133 -209 98 -332 187 -517 374 -202 204 -369
444 -491 704 -27 58 -54 116 -61 130 -10 22 -11 20 -6 -20 4 -25 8 -69 10 -99
2 -34 16 -79 39 -127 19 -41 33 -74 31 -74 -12 0 -90 174 -129 287 -78 231
-116 445 -116 664 0 313 50 511 232 914 117 259 158 368 202 539 41 158 61
346 52 499 -6 110 -37 270 -63 320 -7 15 -11 27 -8 27 2 0 18 -26 34 -57 28
-53 30 -56 31 -28 l1 30 14 -25 c38 -67 -5 81 -50 170 -90 180 -245 314 -429
372 -87 28 -268 35 -366 14 -226 -47 -439 -240 -514 -466 -27 -82 -86 -453
-131 -820 -9 -74 -27 -205 -40 -290 -13 -85 -29 -198 -35 -250 -6 -52 -15
-117 -21 -145 -5 -27 -32 -203 -59 -390 -66 -452 -112 -767 -150 -1010 -16
-110 -36 -242 -44 -292 -15 -99 -33 -138 -97 -208 -43 -48 -56 -85 -28 -80 11
2 19 0 19 -6 0 -5 4 -9 10 -9 5 0 7 7 4 15 -5 12 3 15 37 16 l44 2 -40 6 -40
6 37 29 c73 55 72 55 605 56 518 0 556 -3 649 -46 117 -55 209 -161 253 -291
22 -67 29 -121 11 -93 -8 12 -10 11 -10 -6 0 -32 -57 -192 -85 -239 -35 -61
-131 -151 -190 -180 -27 -14 -75 -29 -105 -34 -33 -6 -585 -9 -1405 -8 -1496
2 -1400 -2 -1520 67 -106 60 -225 214 -260 334 -16 53 -16 62 0 134 34 153
105 241 254 315 l84 42 311 5 c298 5 313 6 361 28 84 39 137 101 168 197 21
63 63 318 122 730 26 176 51 349 56 385 5 36 30 211 54 390 63 460 100 730
129 920 14 91 35 237 46 325 40 307 90 586 121 679 76 227 173 380 364 572
216 219 410 329 726 413 216 58 416 74 609 51z m1865 -64 c0 -36 -27 -56 -52
-40 -40 25 -20 77 26 72 21 -2 26 -8 26 -32z m763 -33 c3 -22 -28 -40 -48 -28
-12 7 -13 38 -3 49 15 14 48 1 51 -21z m-5779 -107 c15 -8 60 -57 98 -108 39
-51 157 -192 261 -313 l189 -220 -23 -28 c-13 -16 -24 -36 -24 -44 0 -11 7 -7
21 11 33 42 60 34 123 -36 86 -98 175 -230 165 -248 -4 -8 -14 -28 -21 -45
-22 -50 -45 -39 -133 66 -89 107 -233 262 -221 239 4 -8 -1 -4 -12 10 -11 13
-18 28 -16 32 2 3 -1 10 -7 14 -8 4 -9 3 -5 -4 16 -27 -4 -9 -30 26 -18 23
-21 32 -9 22 11 -8 2 6 -19 32 -21 26 -43 45 -49 41 -6 -3 -7 -1 -3 5 4 6 -15
39 -41 72 -40 53 -45 64 -35 80 21 33 25 93 8 115 -15 19 -15 19 -10 -5 4 -18
-2 -12 -20 19 -38 63 -81 117 -150 189 -52 53 -65 62 -96 62 -35 0 -60 -14
-60 -34 0 -6 5 -5 12 2 21 21 72 14 98 -13 28 -30 19 -34 -10 -5 -44 44 -109
8 -88 -51 13 -39 43 -46 79 -20 23 17 29 18 29 7 0 -18 -34 -38 -72 -42 -18
-2 -27 1 -25 9 1 7 -10 12 -28 12 -25 0 -31 4 -33 27 -2 15 2 37 8 50 11 22
10 22 -4 4 -23 -28 -30 -13 -12 23 29 56 105 77 165 47z m6494 0 c57 -24 107
-93 107 -146 0 -13 -5 -17 -15 -14 -9 4 -18 -1 -21 -10 -11 -29 -95 -86 -126
-86 -40 0 -84 25 -103 58 -14 23 -16 24 -12 4 3 -12 1 -20 -4 -16 -5 3 -9 12
-9 20 0 8 -4 14 -10 14 -5 0 -10 -8 -10 -17 -1 -16 -2 -16 -11 1 -16 26 -5
103 18 135 24 32 97 71 135 71 16 0 43 -6 61 -14z m-4833 -45 c0 -41 22 -89
69 -147 l40 -51 -23 -22 c-12 -11 -26 -18 -31 -14 -4 5 -5 3 -2 -3 4 -7 -1
-18 -10 -25 -14 -12 -16 -12 -8 1 23 41 -86 -83 -187 -214 -15 -19 -44 -40
-63 -47 -24 -9 -35 -19 -36 -34 0 -14 -5 -10 -14 15 -7 19 -14 71 -14 115 -1
144 62 279 183 391 76 71 96 78 96 35z m-1589 -98 c13 -16 12 -17 -3 -4 -10 7
-18 15 -18 17 0 8 8 3 21 -13z m4461 -205 c49 -14 130 -85 163 -142 45 -77 88
-230 52 -186 -17 21 -61 22 -131 5 -55 -14 -60 -14 -79 2 -43 37 -56 53 -70
80 -8 15 -42 68 -76 117 -34 50 -61 94 -61 98 0 16 64 37 114 38 27 0 67 -5
88 -12z m-3434 -162 c38 -20 63 -51 104 -131 20 -38 63 -121 96 -182 33 -62
63 -120 66 -130 12 -29 -27 11 -60 62 -15 25 -29 43 -30 42 -2 -1 1 -19 5 -40
11 -45 2 -47 -27 -7 -26 34 -47 37 -82 13 -20 -13 -22 -14 -13 -2 11 13 7 17
-22 26 -28 9 -35 8 -35 -2 0 -20 40 -109 46 -102 3 3 1 14 -5 26 -7 13 -8 22
-1 26 5 3 10 2 10 -4 0 -6 10 -19 22 -31 l22 -20 -21 0 c-12 0 -23 -5 -25 -10
-2 -6 -23 22 -46 62 -30 50 -40 74 -31 77 7 2 32 22 56 44 38 35 63 84 63 125
0 25 -18 11 -24 -20 -8 -41 -34 -81 -47 -72 -5 3 -18 -5 -29 -19 -20 -26 -79
-46 -121 -41 -13 1 -32 3 -42 3 -11 1 -34 16 -53 35 -30 30 -34 40 -34 85 0
54 23 113 57 143 29 27 105 58 141 58 18 0 45 -6 60 -14z m4353 -131 c54 -19
125 -87 140 -133 42 -126 -35 -243 -170 -259 -131 -15 -251 79 -251 196 0 75
42 146 105 178 68 36 112 40 176 18z m639 -26 c0 -22 -35 -43 -57 -35 -14 6
-13 10 7 31 13 14 20 25 16 25 -4 0 -4 5 -1 10 10 15 35 -8 35 -31z m-1054
-31 c-8 -85 -50 -236 -77 -284 -40 -69 -82 -115 -100 -111 -9 2 -25 0 -35 -6
-11 -6 -6 4 12 24 96 103 145 208 159 344 6 61 21 93 44 95 2 0 1 -28 -3 -62z
m-71 -55 c-4 -32 -15 -79 -25 -105 -19 -51 -69 -142 -75 -136 -2 2 -11 41 -20
87 l-18 85 69 62 c38 35 71 63 73 64 2 0 0 -26 -4 -57z m-1810 9 c19 -5 -14
-7 -88 -4 -102 4 -226 -7 -286 -25 -9 -2 -4 3 11 11 15 9 51 20 80 26 59 10
236 5 283 -8z m-2164 -112 c30 0 39 -14 16 -23 -23 -9 -108 16 -118 34 -9 17
-7 17 32 4 23 -8 54 -15 70 -15z m3771 -249 c-49 -50 -93 -91 -99 -91 -6 0
-18 39 -28 88 l-17 87 98 92 98 93 18 -89 18 -89 -88 -91z m456 109 l30 -35
-80 -160 c-71 -142 -156 -287 -177 -299 -3 -3 -8 7 -9 20 -1 14 -6 34 -12 44
-11 21 -14 99 -4 124 3 9 17 16 30 16 33 0 59 41 44 69 -6 12 -17 21 -25 21
-8 0 -15 5 -15 10 0 6 4 10 9 10 5 0 12 9 16 20 3 11 33 77 67 146 l60 126 18
-38 c10 -22 31 -55 48 -74z m-4003 80 c3 -5 1 -10 -4 -10 -6 0 -11 5 -11 10 0
6 2 10 4 10 3 0 8 -4 11 -10z m-752 -59 c24 -9 243 -288 234 -297 -3 -3 -28
24 -56 59 -53 67 -76 85 -84 64 -4 -11 -15 9 -32 58 -7 18 -8 18 -15 -6 -31
-107 -129 -134 -213 -59 l-32 28 51 59 c41 47 106 103 120 103 1 0 14 -4 27
-9z m475 -58 c214 -364 244 -418 258 -468 17 -68 18 -62 -5 -68 -14 -3 -18
-11 -14 -26 3 -11 2 -46 -2 -77 -6 -53 -7 -55 -22 -35 -8 12 -19 19 -24 16 -5
-4 -9 1 -9 9 0 8 -4 18 -10 21 -13 8 -2 -22 20 -55 30 -46 40 -78 27 -83 -7
-2 -22 14 -33 37 -12 23 -50 93 -84 156 -125 230 -178 336 -195 388 -32 99 -8
252 39 252 8 0 32 -30 54 -67z m357 -31 c0 -18 -20 -15 -23 4 -3 10 1 15 10
12 7 -3 13 -10 13 -16z m4437 -39 c10 -9 18 -26 18 -38 0 -27 -44 -89 -92
-131 -33 -29 -40 -31 -77 -24 -23 4 -44 10 -48 13 -3 4 -15 1 -27 -5 -25 -13
-28 -18 63 94 88 110 122 129 163 91z m-717 -133 c0 -8 -8 -16 -17 -18 -13 -2
-18 3 -18 18 0 15 5 20 18 18 9 -2 17 -10 17 -18z m-4824 -70 c10 -6 35 -34
54 -62 l34 -52 -41 -35 c-52 -45 -98 -116 -98 -153 0 -57 41 -108 87 -108 12
0 43 -32 83 -86 36 -47 73 -97 84 -110 l18 -25 -27 7 c-18 5 -26 3 -22 -3 4
-7 -9 -12 -34 -15 -22 -2 -43 0 -46 4 -2 5 -10 7 -16 6 -13 -3 -231 236 -306
334 -38 51 -42 62 -37 93 9 47 59 109 134 167 64 48 96 58 133 38z m559 -25
c31 -33 37 -88 12 -113 -32 -32 -91 -45 -120 -26 -48 31 -55 98 -14 136 45 42
84 43 122 3z m4520 -75 c0 -60 -23 -90 -71 -90 -48 0 -51 15 -5 24 35 7 64 31
52 43 -4 4 -11 1 -16 -7 -5 -8 -12 -11 -16 -7 -4 4 0 15 8 24 8 10 18 26 21
36 11 31 27 18 27 -23z m94 18 c-10 -31 -153 -280 -171 -298 -9 -8 -14 -10
-12 -5 25 65 34 85 41 85 12 0 48 77 40 85 -4 5 -1 4 7 0 11 -6 13 -4 8 9 -4
9 -3 14 2 11 5 -3 27 26 48 65 40 73 49 85 37 48z m-5010 -62 c18 -8 46 -32
62 -55 16 -22 62 -81 102 -131 l72 -90 -34 0 c-19 0 -45 -9 -60 -21 -21 -16
-26 -29 -26 -64 0 -24 5 -47 11 -50 6 -4 8 -14 5 -22 -4 -8 3 -36 14 -61 l20
-47 -28 34 c-15 19 -62 76 -104 127 -43 51 -87 111 -99 133 -20 39 -20 43 -5
66 19 29 60 33 94 9 33 -23 40 -9 12 21 -52 55 -150 13 -136 -57 5 -24 2 -28
-18 -28 -24 0 -76 50 -76 73 0 31 47 101 92 137 57 45 57 45 102 26z m4414 -2
c24 -16 28 -44 12 -75 -16 -28 -27 -24 -56 23 -25 39 -26 42 -8 55 23 16 25
16 52 -3z m-1666 -15 c59 -13 150 -55 188 -88 20 -18 17 -17 -15 3 -22 14 -69
38 -105 53 -58 24 -77 27 -182 28 -64 0 -111 3 -105 7 18 12 160 9 219 -3z
m-321 -30 c-24 -11 -46 -17 -49 -14 -3 2 6 8 19 13 13 5 31 12 39 15 37 14 31
4 -9 -14z m388 -27 c83 -35 182 -103 235 -162 68 -75 94 -166 103 -357 3 -73
9 -130 14 -127 8 5 -33 -123 -48 -150 -4 -8 -8 38 -9 107 -1 228 -55 414 -149
515 -114 124 -271 167 -460 127 -91 -19 -164 -56 -219 -109 -114 -112 -157
-248 -226 -724 -17 -117 -37 -241 -45 -275 l-15 -62 4 50 c3 28 11 104 19 170
9 66 18 147 20 180 l5 60 -13 -60 c-8 -33 -23 -123 -34 -200 -15 -103 -19
-119 -15 -60 3 44 12 121 20 170 8 50 21 146 29 215 26 206 71 358 137 463 42
66 44 59 3 -16 -19 -34 -41 -82 -50 -107 -21 -57 -65 -267 -64 -300 1 -20 2
-21 6 -5 52 241 78 326 139 446 48 97 103 152 193 195 130 62 295 68 420 16z
m1906 8 c26 -29 13 -34 -29 -12 -19 11 -33 22 -29 26 13 12 40 6 58 -14z m735
-2 c0 -4 -15 -5 -32 -1 -47 8 -49 14 -5 11 20 -1 37 -6 37 -10z m-3095 -6 c-6
-5 -34 -25 -62 -46 -29 -21 -62 -51 -74 -67 -12 -17 -24 -28 -27 -24 -13 12
135 145 162 145 6 0 6 -3 1 -8z m3141 -27 c5 -11 16 -13 49 -8 29 3 57 0 82
-9 21 -9 46 -14 56 -13 9 2 17 1 17 -2 0 -4 -80 -118 -160 -228 -36 -49 -94
-116 -175 -202 -24 -26 -45 -40 -51 -36 -8 5 13 38 62 98 40 50 78 105 83 124
13 43 -9 101 -51 136 l-30 25 34 0 c64 0 101 68 61 112 -15 17 -15 18 1 18 9
0 19 -7 22 -15z m-2456 -61 l45 -48 -55 49 c-75 66 -78 69 -55 57 11 -6 40
-32 65 -58z m2402 44 c20 -20 20 -22 3 -35 -48 -35 -113 5 -73 45 18 18 46 14
70 -10z m-155 -4 c-3 -3 -12 -4 -19 -1 -8 3 -5 6 6 6 11 1 17 -2 13 -5z
m-2475 -72 c169 -82 251 -268 251 -567 -1 -176 -17 -253 -84 -398 -54 -118
-121 -311 -160 -464 -16 -65 -27 -89 -35 -83 -12 10 -54 -31 -54 -52 0 -9 -3
-9 -12 0 -16 16 -70 15 -87 0 -8 -7 -11 -8 -8 -3 3 6 -1 24 -8 41 -15 35 -68
65 -131 72 l-42 4 -4 64 c-6 100 -62 156 -157 156 -102 0 -142 -48 -149 -179
-2 -46 -6 -83 -8 -83 -23 0 -76 82 -79 122 -1 16 -17 21 -25 8 -14 -23 -13
-12 25 264 20 138 47 334 61 436 58 413 132 580 289 654 80 38 119 45 240 43
101 -3 115 -5 177 -35z m2536 -22 c33 -29 67 -68 77 -90 17 -38 17 -39 -5 -75
-13 -21 -38 -44 -57 -52 -23 -9 -33 -19 -29 -28 3 -8 -6 -27 -20 -42 -26 -27
-28 -28 -125 -25 -56 1 -108 -2 -119 -8 -11 -6 -88 -87 -171 -181 -83 -93
-154 -167 -157 -164 -4 3 -2 9 4 13 27 18 47 70 40 106 l-7 36 -31 -36 c-17
-19 -40 -40 -52 -46 -18 -9 -18 -7 5 18 34 39 103 138 90 129 -43 -26 68 124
245 332 128 151 144 163 204 163 43 0 54 -5 108 -50z m-3182 -36 c-10 -14 -20
-23 -23 -21 -6 6 30 57 36 51 2 -2 -4 -15 -13 -30z m-40 -62 c-18 -16 -18 -16
-6 6 6 13 14 21 18 18 3 -4 -2 -14 -12 -24z m-1512 2 c16 -15 23 -104 10 -116
-8 -8 -74 66 -74 82 0 15 29 50 41 50 4 0 15 -7 23 -16z m-391 -3 c31 -12 40
-36 25 -64 -27 -51 -78 -62 -103 -23 -20 30 -10 74 19 86 28 12 31 12 59 1z
m168 -171 c71 -93 72 -98 32 -167 l-25 -43 26 -31 c43 -50 32 -72 -40 -81 -41
-6 -41 -5 -92 61 -84 110 -100 144 -91 194 4 23 10 52 14 65 6 19 4 22 -21 22
-16 0 -38 7 -48 15 -11 8 -15 15 -9 15 7 0 15 -4 18 -10 20 -33 101 9 117 62
l11 36 21 -26 c12 -15 52 -65 87 -112z m4109 20 c0 -19 -7 -33 -21 -40 -26
-14 -28 -12 -36 34 -5 35 -5 36 26 36 28 0 31 -3 31 -30z m103 -1 c9 -12 17
-38 17 -58 0 -26 -3 -32 -10 -21 -15 24 -32 19 -77 -22 -59 -53 -82 -52 -42 1
28 38 42 101 26 120 -10 12 -6 13 28 8 23 -4 48 -16 58 -28z m-1436 -46 c-3
-10 -5 -4 -5 12 0 17 2 24 5 18 2 -7 2 -21 0 -30z m3473 -3 c0 -5 -4 -10 -10
-10 -5 0 -10 5 -10 10 0 6 5 10 10 10 6 0 10 -4 10 -10z m-3463 -57 c-3 -10
-5 -4 -5 12 0 17 2 24 5 18 2 -7 2 -21 0 -30z m1303 34 c0 -2 -10 -12 -21 -23
-22 -19 -22 -19 -10 4 10 18 31 31 31 19z m-3870 -26 c16 -30 12 -38 -19 -49
-24 -9 -32 -7 -46 8 -11 12 -14 26 -10 39 9 28 60 29 75 2z m-135 -100 l0 -69
-23 23 -22 23 22 45 c13 25 23 46 23 47 0 0 0 -31 0 -69z m2702 -8 c-2 -16 -4
-5 -4 22 0 28 2 40 4 28 2 -13 2 -35 0 -50z m2123 63 c0 -2 -8 -10 -17 -17
-16 -13 -17 -12 -4 4 13 16 21 21 21 13z m-670 -91 c7 -8 9 -23 5 -32 -6 -17
-7 -17 -16 0 -14 24 -51 21 -85 -5 -25 -20 -27 -20 -14 -3 34 47 45 55 70 55
15 0 33 -7 40 -15z m734 -31 c11 -30 6 -41 -35 -67 -42 -28 -69 -34 -69 -18 0
18 21 66 37 83 20 22 59 23 67 2z m-3369 -131 c-4 -30 -9 -52 -12 -50 -2 3 -1
36 3 74 4 37 10 60 12 49 2 -10 1 -43 -3 -73z m-2136 23 c24 -13 201 -220 245
-289 l18 -27 -28 15 c-16 8 -38 15 -49 15 -11 0 -45 23 -75 50 -30 28 -56 50
-58 50 -2 0 14 -21 34 -47 l38 -48 -42 40 c-28 26 -41 46 -38 58 2 9 0 15 -5
11 -14 -8 -11 -36 8 -56 15 -17 13 -18 -63 -12 -123 10 -164 43 -164 133 0 37
5 49 39 82 43 43 88 51 140 25z m2111 -143 c-11 -17 -11 -17 -6 0 3 10 7 28 7
40 2 22 2 22 6 0 2 -12 -1 -30 -7 -40z m3857 10 c18 -8 44 -31 59 -51 40 -51
71 -182 44 -182 -5 0 -10 14 -10 32 0 44 -12 27 -16 -23 -8 -82 -58 -140 -145
-167 -91 -29 -132 -20 -189 40 -17 17 -30 26 -30 21 0 -20 40 -61 76 -78 20
-9 32 -20 28 -24 -5 -3 -23 -19 -40 -34 -28 -26 -34 -27 -54 -15 -21 13 -100
120 -100 136 0 5 -18 18 -40 29 l-39 22 -48 -36 c-26 -20 -63 -50 -80 -66 -25
-23 -33 -27 -33 -15 0 9 35 47 77 85 42 37 128 115 192 173 64 58 133 119 154
134 62 47 121 53 194 19z m401 -310 c-3 -310 -4 -319 -27 -370 -13 -29 -26
-53 -30 -53 -3 0 -34 -3 -67 -5 l-62 -4 -33 52 c-66 102 -155 102 -287 -1 -41
-31 -111 -84 -157 -117 -45 -33 -98 -71 -116 -84 l-34 -25 20 24 c17 20 18 23
3 17 -12 -4 -18 -1 -18 9 0 25 -24 43 -43 32 -37 -20 -13 3 51 49 284 208 260
193 313 193 29 0 66 8 87 19 20 10 61 21 91 24 85 10 185 89 216 172 38 99
-25 219 -131 247 -39 11 -48 19 -74 65 -17 29 -35 53 -40 53 -6 0 -10 5 -10
10 0 6 65 10 176 10 l175 0 -3 -317z m-918 297 c26 -14 42 -65 29 -98 -12 -32
-81 -105 -126 -133 -22 -14 -40 -18 -55 -13 -22 7 -22 7 -3 15 18 7 18 8 -5 9
-17 2 -10 5 20 11 57 11 82 36 83 84 1 47 -37 85 -86 85 l-32 1 40 24 c42 26
102 33 135 15z m-418 -29 c61 -42 73 -68 73 -151 0 -90 -23 -132 -92 -162 -38
-17 -57 -18 -148 -12 l-105 7 -93 -70 c-143 -108 -179 -131 -162 -103 3 6 1
10 -4 10 -6 0 -11 7 -11 15 0 8 -7 36 -16 62 -12 36 -14 51 -5 65 17 27 13 33
-9 13 -11 -10 -20 -16 -20 -13 0 16 360 321 410 349 48 26 136 22 182 -10z
m-5608 -32 c14 -11 72 -78 128 -147 55 -70 108 -136 117 -147 16 -20 16 -20
-9 0 -14 10 -36 30 -49 45 -13 14 -21 20 -17 14 23 -44 29 -82 11 -75 -5 2
-20 5 -32 6 -18 3 -21 -1 -18 -25 4 -27 2 -26 -41 20 -24 26 -44 49 -44 52 0
3 -16 23 -35 44 -31 34 -33 39 -20 54 22 24 19 102 -4 131 -15 18 -29 23 -65
24 -39 0 -44 2 -29 13 26 18 77 14 107 -9z m5925 -28 c20 -40 -12 -54 -50 -21
-23 19 -23 21 -6 34 21 17 44 11 56 -13z m-5961 -3 c29 -29 -6 -108 -48 -108
-61 0 -89 55 -50 98 23 24 78 30 98 10z m1102 -37 c0 -25 -25 -44 -49 -36 -29
9 -33 33 -11 55 16 16 25 18 40 10 11 -6 20 -19 20 -29z m4681 -56 c5 4 9 14
9 25 0 14 5 17 23 12 21 -5 37 -19 37 -33 0 -4 -15 -14 -32 -22 -30 -15 -34
-15 -45 0 -7 9 -12 28 -12 42 2 26 2 26 6 -2 2 -15 9 -25 14 -22z m962 13 c11
-14 21 -48 23 -74 l5 -49 -21 63 c-11 34 -25 62 -29 62 -5 0 -12 7 -15 16 -9
23 15 12 37 -18z m117 -78 c13 -49 0 -114 -31 -146 -23 -25 -50 -34 -32 -11
17 21 42 107 32 107 -5 0 -18 -13 -27 -30 -9 -16 -21 -30 -26 -30 -5 0 -2 7 5
17 9 10 14 41 13 87 0 40 4 74 10 78 15 11 44 -26 56 -72z m-6836 -51 c32 -43
33 -48 14 -38 -13 6 -40 28 -61 47 -32 32 -35 37 -20 43 24 9 25 7 67 -52z
m2683 29 c-3 -7 -5 -2 -5 12 0 14 2 19 5 13 2 -7 2 -19 0 -25z m-2219 -22 c10
-10 9 -18 -8 -39 -38 -48 -90 -31 -90 30 l0 33 43 -6 c23 -4 48 -12 55 -18z
m5422 -6 c0 -5 -14 -24 -31 -42 l-30 -33 7 35 c3 19 12 38 18 42 16 11 36 10
36 -2z m-3213 -42 c-3 -7 -5 -2 -5 12 0 14 2 19 5 13 2 -7 2 -19 0 -25z
m-1354 -17 c19 -22 40 -49 47 -61 10 -19 9 -20 -7 -9 -16 9 -24 6 -53 -19 -19
-17 -46 -40 -60 -51 -25 -20 -25 -20 -7 -52 31 -56 13 -40 -36 31 -56 81 -65
115 -43 158 18 36 27 40 82 41 36 1 46 -4 77 -38z m-504 23 c23 -5 44 -24 83
-73 28 -36 55 -72 61 -79 7 -9 6 -11 -7 -6 -11 4 -16 1 -16 -10 0 -21 -20 -17
-43 9 -18 20 -19 20 -30 0 -41 -75 -113 -95 -175 -49 -34 26 -34 27 -30 92 4
58 8 68 36 93 33 30 61 35 121 23z m1898 -56 c-3 -7 -5 -2 -5 12 0 14 2 19 5
13 2 -7 2 -19 0 -25z m-1736 5 c13 -16 12 -17 -3 -4 -17 13 -22 21 -14 21 2 0
10 -8 17 -17z m5769 14 c0 -2 -10 -12 -22 -23 l-23 -19 19 23 c18 21 26 27 26
19z m-610 -42 c7 -8 10 -25 6 -39 -8 -33 -42 -43 -67 -20 -24 22 -24 29 1 54
24 24 43 25 60 5z m-3433 -37 c-3 -7 -5 -2 -5 12 0 14 2 19 5 13 2 -7 2 -19 0
-25z m3226 -9 c49 -26 49 -63 1 -110 -25 -24 -33 -28 -28 -14 4 11 16 26 26
33 21 15 23 43 6 60 -20 20 -62 13 -114 -19 l-49 -31 25 27 c14 15 43 36 65
46 48 22 42 22 68 8z m-2888 -9 c8 0 30 -14 50 -31 34 -30 35 -34 35 -101 0
-60 -4 -74 -27 -104 -16 -20 -40 -42 -55 -50 -27 -14 -27 -14 -23 16 2 16 6
34 10 40 7 12 -12 40 -27 40 -6 0 -5 -7 2 -15 10 -12 10 -15 -4 -15 -9 0 -16
5 -16 11 0 5 -4 8 -9 4 -16 -9 -8 -48 11 -53 10 -2 18 -12 18 -22 0 -15 -6
-17 -40 -13 -35 5 -41 3 -49 -18 -14 -40 -25 187 -11 240 9 36 18 45 53 62 23
10 48 16 55 14 8 -3 20 -5 27 -5z m-2684 -53 c-13 -13 -26 -3 -16 12 3 6 11 8
17 5 6 -4 6 -10 -1 -17z m5206 3 c87 -53 82 -183 -9 -241 -27 -16 -45 -19 -98
-16 -63 4 -67 3 -120 -37 -162 -121 -198 -144 -209 -133 -13 13 -15 47 -2 47
17 0 44 51 33 62 -8 8 -21 1 -42 -21 -17 -17 -36 -31 -41 -31 -19 0 -7 23 39
72 48 53 46 54 -23 8 -66 -44 -72 -45 -35 -6 36 39 265 230 340 285 52 38 117
42 167 11z m-4257 -9 c0 -5 -7 -12 -16 -15 -24 -9 -28 -7 -14 9 14 17 30 20
30 6z m-2018 -38 c23 -20 23 -32 1 -49 -51 -38 -111 7 -67 50 20 21 43 20 66
-1z m788 -95 c108 -35 132 -46 136 -65 3 -12 12 -27 20 -34 22 -18 16 -29 -13
-24 -16 2 -175 23 -355 47 l-328 43 0 24 c0 13 8 33 18 44 16 19 27 19 204 14
l187 -5 131 -44z m6590 17 c58 -30 64 -57 61 -284 -2 -175 -5 -210 -21 -240
-26 -52 -53 -73 -105 -78 l-45 -6 -1 49 c-2 216 -12 380 -25 398 -13 19 -14
18 -15 -14 -6 -156 -16 -272 -21 -260 -4 8 -16 47 -28 87 -12 40 -30 83 -41
97 -10 13 -19 28 -19 33 0 4 -9 19 -20 33 -15 20 -23 23 -37 14 -84 -49 -97
-56 -88 -47 6 5 46 36 90 68 44 32 94 70 110 85 84 77 144 97 205 65z m-7365
-5 c-3 -5 -16 -10 -28 -9 -20 1 -20 2 3 9 14 4 26 8 28 9 2 1 0 -3 -3 -9z
m1849 -30 c23 -8 176 -210 176 -231 0 -17 -46 21 -80 66 -18 25 -35 43 -37 41
-2 -2 6 -25 18 -52 43 -99 67 -164 60 -164 -3 0 -15 14 -26 32 -10 18 -46 68
-79 113 -63 82 -100 136 -101 145 -2 24 -23 30 -98 30 -50 0 -77 -4 -68 -9 9
-6 10 -11 2 -15 -14 -9 -33 2 -26 15 4 5 -1 9 -9 9 -9 0 -16 7 -16 15 0 13 21
15 129 15 71 0 141 -4 155 -10z m-1795 -15 c47 -8 200 -31 340 -50 140 -19
257 -38 260 -41 3 -3 -34 -3 -84 0 -59 4 -83 3 -70 -3 11 -5 15 -10 9 -10 -6
-1 -9 -14 -6 -30 2 -16 -1 -32 -8 -36 -6 -4 -78 -6 -161 -6 -174 2 -203 -14
-41 -23 195 -12 252 -18 246 -27 -3 -5 -16 -9 -29 -9 -13 0 -30 -6 -37 -14
-10 -9 -59 -14 -176 -18 l-162 -5 -43 -40 c-76 -70 -168 -81 -246 -30 -80 53
-113 164 -73 243 38 73 92 110 171 113 13 1 62 -6 110 -14z m3930 -23 c25 -19
26 -23 23 -98 -2 -44 -9 -84 -15 -91 -7 -7 -29 -13 -49 -15 -21 -1 -38 -6 -38
-10 0 -4 -4 -8 -10 -8 -5 0 -11 19 -11 43 -1 23 -4 56 -8 72 -6 26 -8 21 -15
-33 -4 -34 -11 -60 -15 -58 -5 3 -15 -16 -24 -42 l-16 -47 -2 35 c-1 19 -2 46
-2 60 0 14 1 56 2 93 1 62 4 71 31 99 28 27 36 30 77 25 25 -2 57 -14 72 -25z
m3588 -42 c-20 -29 -60 -58 -90 -65 -24 -6 -27 -4 -27 16 0 62 8 69 72 69 57
0 59 -1 45 -20z m-3452 -45 c0 -22 -14 -28 -34 -16 -12 8 -13 12 -1 26 16 20
35 14 35 -10z m-605 5 c0 -5 -4 -10 -10 -10 -5 0 -10 5 -10 10 0 6 5 10 10 10
6 0 10 -4 10 -10z m130 -25 c0 -8 -4 -15 -10 -15 -5 0 -10 7 -10 15 0 8 5 15
10 15 6 0 10 -7 10 -15z m-2007 -5 l130 0 36 -40 c37 -40 97 -140 84 -140 -4
0 -17 12 -29 28 l-22 27 8 -40 c4 -22 11 -49 15 -60 7 -18 6 -18 -7 -5 -21 20
-128 181 -128 192 0 4 -91 7 -202 6 l-203 -2 145 -6 145 -6 -166 -2 c-91 -1
-187 -5 -212 -8 -40 -6 -46 -4 -57 16 -6 12 -9 29 -5 37 5 14 26 15 172 10 91
-4 225 -7 296 -7z m-549 -13 c17 -13 17 -15 2 -45 -11 -21 -16 -57 -16 -110 0
-43 -3 -82 -7 -86 -4 -3 -29 15 -56 41 -46 46 -49 47 -63 29 -12 -17 -12 -23
2 -45 16 -24 15 -24 -16 4 -92 86 -77 198 31 215 71 12 104 11 123 -3z m5232
-51 c-4 -18 -14 -40 -23 -47 -15 -13 -15 -11 0 18 10 18 17 42 17 54 0 12 3
20 6 16 4 -3 3 -22 0 -41z m-5142 -40 c10 -20 17 -39 15 -41 -2 -2 -16 -1 -31
2 -20 4 -29 13 -33 34 -13 60 20 64 49 5z m2571 24 c3 -11 2 -28 -4 -37 -10
-17 -10 -17 -11 0 0 9 -7 17 -15 17 -8 0 -15 -8 -16 -17 0 -14 -2 -13 -9 5 -5
12 -7 29 -4 37 9 22 51 19 59 -5z m3080 0 c-3 -5 -16 -15 -28 -21 -19 -9 -19
-8 3 10 28 23 34 26 25 11z m245 -30 c11 -11 20 -29 20 -39 0 -18 -2 -19 -27
-5 -36 18 -58 18 -77 -2 -15 -14 -16 -13 -16 10 0 27 32 56 62 56 10 0 27 -9
38 -20z m-3550 -10 c21 -21 28 -84 10 -95 -5 -3 -10 3 -10 14 0 22 -14 28 -25
11 -10 -16 -65 31 -65 55 0 12 3 25 7 28 14 14 64 6 83 -13z m3033 -14 c43
-18 67 -46 74 -89 9 -58 -5 -105 -45 -149 -51 -57 -70 -62 -109 -27 -28 24
-87 49 -118 49 -6 0 -9 17 -7 40 2 22 -1 53 -6 70 -11 29 -9 31 46 68 84 57
108 63 165 38z m-1052 -37 c11 -11 18 -27 15 -36 -3 -8 -6 -19 -6 -25 0 -13
-66 -3 -86 13 -8 6 -14 24 -14 40 0 26 3 29 35 29 22 0 43 -8 56 -21z m-3770
-24 c23 -9 240 -315 224 -315 -2 0 -29 30 -59 68 -63 78 -119 141 -113 127 3
-5 23 -41 46 -79 23 -37 40 -71 37 -74 -4 -3 1 -16 10 -30 8 -13 14 -25 12
-27 -2 -3 -55 65 -118 150 -105 142 -117 155 -145 154 -16 0 -24 -3 -17 -6 6
-2 12 -13 12 -23 0 -23 -26 -28 -206 -36 -129 -6 -143 -5 -180 14 -22 11 -46
28 -53 36 -12 14 -10 16 10 17 19 1 18 3 -10 10 -18 6 -36 8 -39 5 -3 -3 14
-29 36 -58 l41 -53 -41 -3 c-65 -5 -74 15 -46 107 l10 34 287 -6 c157 -2 293
-8 302 -12z m-764 -136 c122 -143 121 -130 1 -123 l-103 6 -55 53 c-70 67 -92
78 -156 78 -84 0 -138 -43 -158 -125 -5 -22 -12 -28 -35 -28 -47 0 -91 21
-106 51 -19 35 -20 148 -2 154 19 7 278 22 414 24 l123 1 77 -91z m-754 -44
c7 -118 19 -147 86 -208 43 -39 86 -56 149 -60 l42 -2 0 -54 0 -54 -97 6 c-54
3 -121 13 -149 21 -66 21 -140 86 -170 151 -21 44 -24 65 -24 172 0 138 -6
130 96 132 l61 1 6 -105z m107 26 c0 -77 1 -80 34 -109 24 -21 50 -32 85 -37
l51 -7 0 -59 0 -59 -48 0 c-60 0 -124 32 -165 82 -32 40 -45 109 -39 211 l4
57 39 0 39 0 0 -79z m3264 57 c8 -13 17 -39 21 -58 7 -31 6 -33 -8 -22 -13 11
-17 10 -25 -4 -7 -13 -12 -6 -26 35 -9 29 -14 56 -11 61 11 17 34 11 49 -12z
m2640 6 c19 -18 19 -20 6 -45 -14 -25 -38 -24 -42 1 -2 11 -7 20 -13 19 -5 -1
-9 -5 -7 -10 1 -5 -2 -9 -8 -9 -18 0 -10 29 12 44 28 20 33 20 52 0z m-274 -9
c57 -30 75 -86 45 -144 -19 -38 -73 -58 -164 -62 l-74 -4 -12 40 c-11 36 -12
37 -16 15 l-5 -25 -5 28 c-6 24 3 37 60 97 59 63 70 70 104 70 21 0 51 -7 67
-15z m-5248 -54 c25 -9 101 -81 126 -119 12 -19 13 -25 3 -31 -7 -5 -15 -37
-18 -72 -5 -53 -10 -68 -33 -90 -15 -14 -30 -35 -33 -45 -2 -10 -5 32 -6 94
-1 98 -4 115 -21 132 -46 46 -120 4 -120 -68 0 -47 18 -73 61 -87 38 -13 35 4
31 -190 l-2 -95 -68 0 c-40 0 -73 5 -80 12 -17 17 -17 463 1 498 27 54 102 83
159 61z m796 -21 c141 0 222 -4 222 -10 0 -6 -50 -10 -131 -10 -84 0 -128 -4
-124 -10 3 -5 27 -10 52 -10 35 0 44 -3 40 -14 -3 -8 -1 -17 6 -20 31 -12 -26
-26 -113 -26 -52 0 -112 -4 -132 -9 -45 -11 -73 2 -129 59 -22 22 -44 40 -50
40 -6 0 -7 5 -3 11 5 8 28 10 73 5 36 -3 166 -6 289 -6z m1900 -12 c14 -14 16
-58 2 -58 -5 0 -7 6 -5 13 3 6 1 18 -4 26 -12 19 -45 6 -37 -15 3 -8 2 -12 -4
-9 -21 13 -2 55 25 55 6 0 16 -5 23 -12z m3041 -36 c81 -65 99 -134 58 -212
-14 -26 -31 -44 -40 -44 -9 1 -13 -4 -10 -12 3 -10 -11 -21 -42 -35 -38 -17
-58 -19 -106 -14 -32 4 -62 12 -66 18 -3 6 -1 7 6 3 17 -11 71 3 71 19 0 7 -9
15 -20 18 -37 10 -20 22 25 19 25 -2 53 -1 63 4 9 4 20 7 24 6 3 -1 12 6 20
15 11 14 11 16 -1 8 -8 -5 -5 6 8 24 20 28 21 34 9 49 -8 9 -18 25 -21 35 -9
25 -70 51 -101 43 -36 -9 -76 -52 -77 -84 -2 -34 -2 -32 6 -64 7 -26 6 -27
-23 -18 -36 10 -42 1 -34 -47 6 -42 -19 -45 -37 -5 -14 29 -31 171 -23 185 4
9 -54 -26 -125 -75 -81 -55 -43 -21 60 54 151 110 166 120 206 135 54 20 127
9 170 -25z m-5249 -24 c17 -23 30 -54 30 -70 0 -15 5 -28 10 -28 6 0 10 -9 10
-20 0 -11 5 -20 10 -20 6 0 10 -5 10 -12 0 -6 7 -21 16 -32 9 -12 -22 20 -70
69 -83 86 -105 122 -91 144 14 23 46 10 75 -31z m510 7 c0 -20 -5 -25 -25 -25
-24 0 -51 31 -38 44 3 3 19 6 35 6 23 0 28 -4 28 -25z m5806 4 c3 -6 -1 -18
-9 -27 -14 -13 -21 -14 -43 -3 -21 9 -24 15 -15 24 9 9 14 9 20 -1 7 -11 9
-10 14 2 7 19 23 21 33 5z m-880 -14 c24 -10 39 -25 50 -51 30 -71 -2 -133
-102 -203 -45 -31 -44 -29 17 28 37 33 72 74 79 90 27 66 -34 140 -106 128
-35 -6 -58 8 -27 16 34 9 54 7 89 -8z m-5654 -40 c37 -4 70 -11 73 -16 4 -5 0
-7 -7 -4 -10 4 -12 -10 -10 -62 3 -60 7 -72 35 -102 18 -19 27 -31 21 -28 -27
15 -217 229 -199 224 11 -3 50 -8 87 -12z m-1018 -55 c10 -25 31 -67 47 -93
22 -36 25 -45 12 -38 -49 26 -93 99 -93 153 0 48 10 42 34 -22z m764 1 c5 -29
-26 -63 -52 -59 -24 4 -49 49 -40 73 17 43 85 32 92 -14z m-679 -17 c21 -63
53 -108 104 -145 42 -30 38 -37 -10 -18 -61 23 -124 105 -138 181 -6 31 -4 36
10 34 10 -1 23 -21 34 -52z m6306 36 c11 -18 -14 -48 -45 -52 -42 -6 -39 25 5
50 25 14 32 15 40 2z m586 -15 c55 -29 67 -113 23 -164 -26 -32 -80 -53 -113
-44 -10 2 -33 -3 -51 -12 l-33 -17 20 29 c27 37 36 68 28 94 -6 17 -9 18 -23
7 -13 -11 -15 -10 -10 9 5 20 4 22 -15 11 -38 -19 22 41 72 73 52 33 61 35
102 14z m-2934 -53 c41 -23 56 -68 49 -141 -8 -90 -15 -109 -39 -117 -28 -9
-583 -11 -592 -2 -4 4 -8 42 -8 85 -2 115 33 167 121 183 71 12 445 6 469 -8z
m-2320 -47 c2 -6 -29 -10 -80 -11 -45 0 -92 -6 -105 -13 -21 -11 -21 -13 -6
-42 8 -17 14 -32 12 -34 -2 -1 -20 8 -41 22 -46 29 -68 70 -46 84 19 12 261 7
266 -6z m1665 -27 c-7 -7 -12 -8 -12 -2 0 6 3 14 7 17 3 4 9 5 12 2 2 -3 -1
-11 -7 -17z m-1724 -8 c39 0 43 -2 40 -21 -4 -31 -74 -35 -105 -6 -13 11 -23
25 -23 30 0 5 10 7 23 3 12 -3 41 -6 65 -6z m1732 -14 c0 -2 -9 -6 -20 -9 -11
-3 -18 -1 -14 4 5 9 34 13 34 5z m-1520 -77 c7 -11 9 -28 6 -36 -6 -14 -9 -14
-26 2 -23 21 -27 55 -5 55 8 0 19 -9 25 -21z m-613 -55 c15 -24 15 -28 0 -52
-30 -51 -97 -35 -97 22 0 53 67 74 97 30z m5857 -74 c67 -21 209 -108 220
-135 3 -10 -5 -20 -25 -31 -17 -8 -29 -18 -26 -20 3 -3 19 2 37 11 36 19 30
22 90 -62 66 -92 100 -222 100 -377 l0 -95 -40 -40 c-35 -34 -40 -45 -40 -84
0 -29 7 -53 19 -69 19 -23 19 -28 6 -87 -21 -88 -101 -241 -126 -241 -5 0 -9
12 -9 28 0 15 -12 66 -26 114 l-27 88 45 97 c67 143 83 214 83 364 0 124 0
126 -37 200 -73 147 -190 231 -329 237 -80 4 -111 -6 -201 -66 -21 -14 -40
-23 -42 -21 -2 2 -2 18 1 34 4 25 13 34 49 49 59 24 104 67 104 100 0 25 3 26
54 26 30 0 83 -9 120 -20z m-206 -6 c-2 -9 -23 -27 -48 -40 -41 -22 -45 -23
-49 -7 -2 9 9 27 23 40 32 27 79 32 74 7z m-5225 -6 c3 -10 -14 -12 -72 -10
-52 2 -71 0 -61 -7 8 -5 12 -12 9 -15 -3 -3 -16 5 -29 19 l-23 25 85 0 c59 0
87 -4 91 -12z m4845 -82 c2 -10 -6 -20 -22 -26 -14 -5 -26 -16 -26 -24 0 -21
-38 -8 -45 15 -15 48 30 90 70 64 11 -7 21 -20 23 -29z m-4942 26 c10 -6 27
-42 20 -42 -1 0 -13 11 -26 25 -22 23 -18 34 6 17z m1908 -43 c16 -13 26 -30
26 -47 l0 -26 -28 33 c-23 27 -33 32 -62 29 -26 -2 -40 -11 -58 -38 l-25 -35
7 30 c17 70 85 97 140 54z m-2539 -52 c43 -11 50 -17 57 -45 16 -60 110 -82
124 -28 l6 24 49 -20 c27 -11 49 -26 49 -32 0 -6 -28 -22 -62 -35 -54 -21
-149 -71 -211 -114 -16 -10 -24 -6 -59 33 -49 54 -66 91 -76 170 l-9 60 41 0
c23 0 63 -6 91 -13z m2491 2 c10 -17 -13 -36 -27 -22 -12 12 -4 33 11 33 5 0
12 -5 16 -11z m-2367 -8 c18 -11 5 -31 -20 -31 -18 0 -26 20 -12 33 8 9 15 9
32 -2z m416 -26 c0 -28 -29 -25 -33 3 -3 19 0 23 15 20 10 -2 18 -12 18 -23z
m-862 -38 c18 -8 49 -33 70 -56 31 -35 37 -47 35 -84 l-1 -42 -7 45 c-6 41 -7
38 -8 -29 -2 -63 -4 -72 -18 -67 -14 5 -15 4 -4 -9 20 -24 28 -18 33 23 l4 37
1 -42 c1 -23 -3 -45 -8 -48 -11 -7 -82 47 -157 119 -37 35 -43 46 -43 82 0 46
19 70 68 83 1 1 17 -5 35 -12z m6460 -9 c15 -7 27 -16 27 -21 0 -4 -13 -1 -30
8 -35 18 -64 19 -93 3 -20 -10 -21 -10 -8 5 16 20 66 22 104 5z m-1641 -45
c10 -9 18 -23 18 -32 0 -11 -4 -9 -16 7 -18 26 -75 30 -94 7 -7 -9 -15 -13
-18 -10 -3 3 3 14 13 25 22 24 72 26 97 3z m1723 -3 c3 -5 1 -10 -4 -10 -6 0
-11 5 -11 10 0 6 2 10 4 10 3 0 8 -4 11 -10z m-365 -80 c-8 -5 -19 -10 -25
-10 -5 0 -3 5 5 10 8 5 20 10 25 10 6 0 3 -5 -5 -10z m-1405 -20 c13 -6 15 -9
5 -9 -8 0 -22 4 -30 9 -18 12 -2 12 25 0z m2415 -25 c18 -21 -2 -65 -29 -65
-21 0 -39 25 -35 48 1 6 2 17 3 22 2 16 47 12 61 -5z m-3119 -52 c13 -16 12
-17 -3 -4 -10 7 -18 15 -18 17 0 8 8 3 21 -13z m722 10 c-7 -2 -21 -2 -30 0
-10 3 -4 5 12 5 17 0 24 -2 18 -5z m1537 -113 c11 -11 20 -26 20 -34 0 -17
-39 -66 -40 -49 0 6 5 13 12 15 16 6 2 38 -16 38 -9 0 -20 -9 -26 -20 -6 -11
-20 -20 -30 -20 -28 0 -26 43 2 70 28 25 52 26 78 0z m-2179 -7 c13 -16 12
-17 -3 -4 -10 7 -18 15 -18 17 0 8 8 3 21 -13z m-4164 -26 c9 -9 1 -12 -37
-12 -53 0 -58 3 -38 23 14 14 56 8 75 -11z m123 -62 c13 -14 21 -25 18 -25 -2
0 -15 11 -28 25 -13 14 -21 25 -18 25 2 0 15 -11 28 -25z m6830 -122 c19 -24
20 -28 6 -31 -9 -2 -30 4 -48 12 -31 16 -47 10 -48 -16 0 -16 -20 -7 -20 9 0
53 75 71 110 26z m-6830 -18 c9 -11 8 -19 -4 -37 -9 -12 -16 -30 -16 -40 0
-27 -46 -23 -65 6 -15 23 -13 47 8 74 13 17 62 15 77 -3z m4295 -55 c10 -11
16 -20 13 -20 -3 0 -13 9 -23 20 -10 11 -16 20 -13 20 3 0 13 -9 23 -20z
m1093 -46 c12 -8 22 -21 22 -27 0 -7 -4 -6 -10 3 -5 8 -10 10 -10 4 0 -7 -20
-14 -44 -15 -39 -4 -43 -2 -35 13 8 16 36 37 49 38 3 0 16 -7 28 -16z m1052
12 c0 -2 -8 -10 -17 -17 -16 -13 -17 -12 -4 4 13 16 21 21 21 13z m-89 -100
c-34 -35 -81 -74 -104 -86 -49 -27 -42 -19 33 37 30 23 71 58 89 77 19 20 37
36 40 36 3 0 -23 -29 -58 -64z m-1830 -49 c47 -34 95 -67 105 -74 10 -6 15
-12 9 -12 -11 -1 -163 107 -221 157 -42 37 -26 26 107 -71z m1337 77 c2 -11
-4 -26 -12 -33 -31 -26 -71 14 -45 45 17 21 53 14 57 -12z m-5678 -319 c55
-166 100 -254 174 -332 32 -35 56 -66 52 -70 -13 -13 -112 44 -162 93 -129
129 -193 318 -169 500 l8 59 27 -60 c15 -33 47 -118 70 -190z m6350 169 c11
-36 20 -90 20 -118 l0 -53 -62 -46 c-60 -45 -143 -85 -153 -75 -3 3 26 70 63
149 38 79 74 159 81 177 8 17 17 32 22 32 4 0 17 -30 29 -66z m-1548 -163
c158 -50 301 -72 478 -72 340 0 637 68 805 184 25 17 27 18 16 3 -20 -24 -168
-97 -261 -129 -162 -55 -284 -72 -530 -72 -248 1 -318 11 -510 75 -101 34
-281 116 -315 144 -11 9 34 -10 100 -43 66 -32 164 -72 217 -90z m-1452 86 c0
-2 -10 -12 -22 -23 l-23 -19 19 23 c18 21 26 27 26 19z m-50 -41 c0 -3 -24
-18 -53 -35 -113 -65 -35 -62 -1543 -59 l-1369 3 -70 28 c-103 41 -102 51 1
14 l89 -32 1320 0 c726 -1 1357 2 1403 6 67 6 97 15 150 43 76 39 72 37 72 32z
m574 -50 c51 -30 86 -89 86 -145 0 -60 -25 -118 -145 -327 -132 -230 -155
-267 -162 -260 -3 3 2 13 11 22 16 16 15 19 -17 53 -19 20 -50 63 -68 96 -18
33 -43 72 -57 87 -19 21 -23 35 -21 66 l4 39 -43 -19 c-24 -11 -45 -18 -48
-16 -5 6 200 112 295 152 107 45 141 76 141 128 0 98 -126 108 -166 12 -8 -18
-14 -46 -14 -62 0 -20 -8 -32 -29 -45 -16 -9 -32 -17 -35 -17 -13 0 -5 21 15
41 15 15 19 28 14 49 -4 17 -6 33 -5 36 1 4 -3 10 -9 14 -18 11 24 57 83 90
64 37 114 39 170 6z m2456 -124 c-96 -180 -239 -280 -430 -297 -85 -8 -85 -8
15 58 66 43 165 134 200 185 10 13 26 22 42 22 29 0 165 64 184 86 25 30 20 3
-11 -54z m-2521 21 c14 -26 -5 -53 -38 -53 -35 0 -45 20 -25 49 18 25 49 27
63 4z m2561 -245 c-38 -224 -208 -368 -435 -368 -59 0 -79 5 -125 30 -30 16
-94 51 -142 76 -49 25 -88 50 -88 55 0 4 7 5 17 2 11 -4 14 -3 9 5 -4 7 -4 12
1 12 4 0 19 10 33 21 17 15 19 19 7 15 -10 -3 -15 -2 -12 3 11 19 115 41 192
41 161 1 299 50 395 143 58 55 133 162 146 207 12 43 14 -170 2 -242z m-6424
136 c79 -119 183 -209 267 -229 20 -5 36 -23 62 -70 19 -34 35 -66 35 -72 0
-9 -14 -9 -147 1 -74 6 -115 29 -161 92 -54 72 -80 145 -90 249 -4 47 -7 85
-6 85 2 0 20 -25 40 -56z m4824 26 c0 -5 -4 -10 -9 -10 -6 0 -13 5 -16 10 -3
6 1 10 9 10 9 0 16 -4 16 -10z m-1953 -87 c-3 -10 -5 -2 -5 17 0 19 2 27 5 18
2 -10 2 -26 0 -35z m3099 -25 c4 -7 3 -8 -4 -4 -7 4 -12 3 -12 -3 0 -16 -115
-80 -197 -111 -121 -43 -252 -60 -469 -59 -104 0 -211 4 -239 8 -27 4 47 5
167 3 133 -2 218 0 222 6 3 6 24 8 46 5 82 -11 243 41 415 134 71 38 62 36 71
21z m-4236 -19 c0 -12 -57 -12 -65 0 -3 5 7 11 22 13 32 4 43 1 43 -13z
m-1226 -119 c60 -17 123 -22 347 -29 l274 -9 -280 3 c-277 3 -321 8 -405 43
-39 17 -16 14 64 -8z m-65 -42 c93 -31 102 -32 301 -36 214 -4 221 -6 258 -53
l20 -24 -305 2 c-167 1 -308 5 -313 8 -10 6 -70 115 -70 127 0 12 4 11 109
-24z m3866 -6 c22 -15 49 -44 59 -64 l20 -36 -28 -66 c-16 -36 -41 -77 -57
-90 -16 -14 -29 -31 -29 -39 0 -29 -94 -35 -146 -11 -46 22 -37 29 10 9 21 -9
47 -13 58 -9 16 5 11 10 -31 30 -42 19 -55 31 -71 66 -17 39 -19 41 -19 16 -1
-18 -6 -28 -17 -28 -8 0 -13 4 -9 9 3 5 1 12 -5 16 -5 3 -10 20 -10 37 0 38
-9 31 -20 -14 l-8 -33 -1 30 c-4 121 106 224 224 209 22 -2 58 -17 80 -32z
m678 31 c-7 -2 -19 -2 -25 0 -7 3 -2 5 12 5 14 0 19 -2 13 -5z m135 -92 c-79
-112 -328 -181 -496 -137 -62 17 -187 74 -179 82 3 3 16 -1 29 -9 61 -38 131
-52 263 -51 150 1 205 16 315 90 71 47 88 54 68 25z m427 -51 c0 -25 -5 -36
-17 -38 -35 -7 -51 25 -39 76 1 2 13 2 29 0 24 -3 27 -7 27 -38z m-3655 -90
l75 -72 -90 78 c-110 95 -129 113 -90 86 17 -11 64 -53 105 -92z m280 43 c0
-7 -58 36 -66 49 -4 7 9 -1 29 -16 20 -16 37 -30 37 -33z m1402 -5 c-2 -29 -7
-56 -11 -59 -10 -10 -353 -140 -357 -136 -5 5 148 77 164 77 15 0 16 17 0 26
-7 4 -8 3 -4 -5 6 -9 -4 -10 -41 -6 -38 6 -64 1 -122 -19 -41 -14 -76 -24 -78
-23 -3 3 433 194 448 196 3 1 4 -23 1 -51z m-904 33 c8 -5 12 -22 10 -42 -3
-30 -7 -34 -35 -37 -36 -4 -59 24 -48 58 8 25 49 37 73 21z m-1070 -24 c2 -10
-3 -17 -12 -17 -18 0 -29 16 -21 31 9 14 29 6 33 -14z m-108 -2 c15 -18 5 -35
-21 -35 -12 0 -19 7 -19 18 0 33 20 42 40 17z m4359 -93 c-2 -28 -17 -78 -18
-61 -2 28 -65 41 -88 18 -12 -12 -53 -3 -53 12 0 5 9 9 20 9 12 0 20 7 20 18
0 13 2 14 9 4 6 -11 11 -10 25 3 11 12 25 15 44 11 26 -6 26 -6 -5 15 -45 29
-41 34 7 9 25 -13 40 -27 39 -38z m-200 -48 c-6 -8 -16 -14 -21 -14 -5 0 -2 7
6 16 9 8 17 32 18 52 l1 37 4 -38 c3 -21 -1 -45 -8 -53z m-4889 61 c31 -16 56
-52 44 -63 -4 -4 -9 -2 -11 5 -6 16 -33 5 -33 -13 0 -17 -5 -17 -31 -4 -24 13
-59 -3 -60 -28 0 -13 -2 -12 -9 5 -5 12 -18 24 -29 28 -27 8 -27 26 2 52 39
36 81 42 127 18z m4290 5 c0 -5 -4 -10 -10 -10 -5 0 -10 5 -10 10 0 6 5 10 10
10 6 0 10 -4 10 -10z m-4752 -22 c16 -16 15 -43 -2 -57 -11 -9 -15 -8 -20 4
-3 9 -2 13 4 10 6 -3 10 -1 10 6 0 8 -11 10 -35 6 -24 -4 -35 -2 -35 7 0 19
22 36 45 36 12 0 26 -5 33 -12z m4446 -8 c29 -11 34 -37 10 -47 -11 -4 -23 2
-35 18 -31 40 -23 48 25 29z m-2564 -24 c5 -13 7 -38 5 -55 -3 -23 -1 -30 8
-25 7 4 5 -1 -4 -10 -29 -32 -99 17 -99 69 0 48 73 65 90 21z m2730 -5 c0 -11
-12 -23 -30 -31 -37 -16 -47 -8 -32 25 14 31 62 36 62 6z m-1350 -51 c0 -3 -6
-15 -14 -25 -12 -16 -16 -17 -30 -6 -21 18 -20 47 2 60 13 8 20 6 30 -6 6 -9
12 -20 12 -23z m2230 19 c0 -19 2 -20 16 -8 14 12 16 11 13 -6 -3 -12 -14 -21
-27 -23 -19 -3 -22 1 -22 27 0 17 5 31 10 31 6 0 10 -10 10 -21z m-3202 -5
c16 -11 22 -25 22 -54 0 -21 5 -42 10 -45 22 -14 8 -26 -27 -24 -76 5 -123 87
-71 123 12 9 27 16 33 16 6 0 21 -7 33 -16z m2638 -41 c-11 -40 -64 -111 -96
-128 -38 -20 -44 -19 -22 4 28 31 36 43 61 93 13 26 31 49 40 51 9 3 18 5 20
6 2 0 0 -11 -3 -26z m-1143 -65 c18 -28 -7 -68 -42 -68 -44 0 -61 10 -61 36 0
46 79 71 103 32z m-453 -53 c0 -36 -33 -41 -64 -10 l-25 25 27 6 c15 3 32 7
37 9 17 4 25 -5 25 -30z m-2360 -18 c0 -23 -18 -40 -34 -34 -15 6 -15 9 0 32
16 24 34 25 34 2z m1058 -21 c-7 -8 -15 -12 -17 -11 -5 6 10 25 20 25 5 0 4
-6 -3 -14z m2359 -6 c1 -11 -2 -22 -8 -25 -5 -4 -9 5 -9 19 0 30 15 35 17 6z
m-2340 -36 c-3 -3 -12 -4 -19 -1 -8 3 -5 6 6 6 11 1 17 -2 13 -5z m1913 -19
c20 -24 -3 -67 -32 -63 -29 4 -35 34 -12 59 21 23 28 24 44 4z m-2586 -24 c20
-22 14 -41 -14 -41 -20 0 -32 22 -24 45 8 20 17 19 38 -4z m2316 -41 c0 -5 -8
-10 -17 -10 -15 0 -16 2 -3 10 19 12 20 12 20 0z"/>
<path d="M5617 7664 c-13 -13 -7 -53 9 -62 9 -5 25 -7 36 -4 15 3 18 12 16 36
-2 25 -8 32 -28 34 -14 2 -29 0 -33 -4z"/>
<path d="M5196 7541 c-24 -26 -17 -62 15 -80 24 -13 29 -13 53 2 16 11 26 27
26 42 0 50 -60 73 -94 36z"/>
<path d="M4371 7511 c-16 -29 -14 -46 9 -66 41 -37 102 17 73 64 -16 25 -69
26 -82 2z m67 -24 c4 -20 -25 -34 -40 -19 -15 15 -1 44 19 40 10 -2 19 -11 21
-21z"/>
<path d="M4676 7345 c-4 -12 -2 -13 13 -6 12 7 22 6 31 -2 12 -10 12 -9 1 6
-17 21 -37 22 -45 2z"/>
<path d="M4635 7290 c29 -53 66 -64 106 -30 13 10 19 19 12 20 -6 0 -15 -4
-18 -10 -11 -18 -58 -11 -83 13 -14 12 -22 15 -17 7z"/>
<path d="M6155 7281 c-50 -23 -75 -65 -75 -126 0 -62 29 -108 84 -134 55 -27
64 -26 114 6 73 48 89 110 47 192 -19 38 -33 52 -65 65 -50 20 -56 20 -105 -3z
m114 -37 c45 -38 41 -60 -5 -29 -52 36 -86 30 -111 -18 -8 -15 -11 -15 -28 -3
-18 13 -18 15 12 45 41 40 88 42 132 5z m-64 -124 c21 0 26 -3 18 -11 -17 -17
-54 -6 -72 21 -15 25 -15 25 5 8 11 -10 33 -18 49 -18z"/>
<path d="M4162 7187 c-42 -45 -23 -107 40 -122 54 -14 97 65 61 113 -27 37
-72 40 -101 9z m71 -12 c1 -5 -13 -11 -30 -13 -31 -3 -42 6 -26 22 10 10 53 3
56 -9z"/>
<path d="M5758 7139 c-24 -13 -23 -50 2 -77 23 -25 33 -27 61 -12 25 14 26 68
2 86 -21 16 -42 17 -65 3z m59 -20 c13 -13 6 -39 -9 -39 -15 0 -58 37 -51 44
10 10 48 7 60 -5z"/>
<path d="M4980 7116 c-41 -12 -95 -33 -120 -45 -69 -36 -181 -124 -237 -188
-47 -54 -113 -159 -113 -179 0 -5 17 20 38 56 57 98 190 226 288 278 115 60
210 82 353 82 130 0 200 -14 300 -61 174 -80 302 -214 398 -413 19 -39 31 -60
27 -46 -21 80 -124 247 -195 319 -100 100 -210 167 -330 201 -107 29 -305 28
-409 -4z"/>
<path d="M6114 6406 c-15 -40 21 -80 54 -60 37 24 21 74 -25 74 -13 0 -26 -6
-29 -14z m46 -14 c0 -13 -12 -22 -22 -16 -10 6 -1 24 13 24 5 0 9 -4 9 -8z"/>
<path d="M3794 6275 c-74 -51 -37 -165 54 -165 67 0 102 72 67 139 -22 43 -80
56 -121 26z m99 -27 c9 -11 17 -30 17 -43 0 -24 -37 -55 -66 -55 -27 0 -74 33
-74 53 0 67 78 96 123 45z"/>
<path d="M3816 6183 c21 -15 50 -17 58 -4 3 5 -12 11 -35 13 -35 3 -38 2 -23
-9z"/>
<path d="M6380 6120 c-11 -11 -20 -27 -20 -35 0 -20 36 -55 56 -55 53 0 75 64
32 94 -30 21 -44 20 -68 -4z m60 -15 c17 -20 5 -45 -20 -45 -23 0 -35 22 -26
45 7 19 30 19 46 0z"/>
<path d="M4092 6038 c-29 -29 1 -88 45 -88 23 0 53 29 53 53 0 39 -69 64 -98
35z m61 -23 c-1 -5 -8 -14 -17 -20 -18 -11 -42 7 -31 25 8 13 51 9 48 -5z"/>
<path d="M6440 5907 c-52 -26 -52 -105 0 -132 34 -18 73 -7 89 24 35 65 -26
140 -89 108z m69 -39 c13 -36 2 -49 -37 -46 -42 4 -62 29 -43 52 21 25 70 21
80 -6z"/>
<path d="M3587 5572 c-32 -35 -13 -94 33 -103 26 -5 61 12 69 34 9 24 -3 67
-22 79 -22 14 -64 8 -80 -10z m68 -2 c6 -9 -33 -30 -56 -30 -14 0 -11 28 4 33
21 9 46 7 52 -3z"/>
<path d="M6102 5319 c-53 -20 -51 -101 3 -115 33 -8 53 0 66 30 24 52 -18 104
-69 85z m56 -41 c3 -22 -2 -29 -22 -34 -34 -8 -56 1 -56 24 0 26 21 43 50 40
19 -2 26 -10 28 -30z"/>
<path d="M3567 5288 c-45 -35 -36 -124 16 -141 43 -14 76 -1 92 36 25 61 -6
117 -65 117 -15 0 -34 -6 -43 -12z m74 -18 c11 -6 19 -21 19 -36 0 -14 -4 -23
-9 -19 -5 3 -12 1 -16 -5 -9 -15 -61 -12 -74 4 -9 11 -9 20 -2 34 17 31 48 40
82 22z"/>
<path d="M3927 5026 c-3 -8 -16 -16 -29 -19 -21 -4 -21 -4 3 -6 24 -1 48 24
35 36 -2 2 -6 -3 -9 -11z"/>
<path d="M5949 4855 c-57 -31 -61 -114 -7 -160 38 -32 81 -33 113 -1 84 84 -3
217 -106 161z m92 -24 c16 -16 29 -37 29 -46 0 -24 -55 -75 -80 -75 -27 0 -70
43 -70 70 0 25 51 80 75 80 9 0 30 -13 46 -29z"/>
<path d="M3381 4724 c0 -11 3 -14 6 -6 3 7 2 16 -1 19 -3 4 -6 -2 -5 -13z"/>
<path d="M3347 4508 c-15 -101 -39 -266 -52 -368 -41 -299 -104 -668 -124
-720 -40 -105 -125 -194 -223 -232 -48 -19 -82 -22 -353 -28 l-300 -6 -70 -29
c-53 -22 -86 -45 -136 -94 -85 -84 -112 -149 -113 -266 0 -70 3 -86 29 -134
72 -133 201 -227 340 -251 52 -8 422 -10 1430 -8 l1360 3 66 31 c79 38 175
129 208 197 13 27 28 84 33 129 11 92 2 146 -38 214 -27 46 -106 124 -145 143
-20 10 -19 8 5 -10 36 -28 107 -99 98 -99 -3 0 4 -10 15 -22 42 -49 53 -144
29 -260 -16 -74 -18 -79 -61 -127 -63 -71 -96 -98 -152 -127 -57 -28 -62 -29
-218 -30 -88 -1 -136 1 -107 3 28 2 52 8 52 14 0 5 9 9 19 9 30 0 35 29 6 36
-21 5 -25 12 -25 42 l0 35 -100 -7 c-96 -7 -100 -6 -100 14 0 13 -7 20 -20 20
-11 0 -20 5 -20 10 0 6 -27 10 -60 10 -47 0 -60 3 -60 15 0 9 -12 18 -30 22
-16 3 -30 12 -30 19 0 14 -24 22 -70 23 -14 0 -26 5 -28 11 -2 5 -14 10 -27
10 -13 0 -27 5 -30 10 -3 6 -16 10 -28 10 -20 1 -20 2 -4 11 31 18 18 95 -22
126 -25 19 -68 15 -95 -9 -20 -18 -26 -34 -28 -70 -1 -27 -5 -48 -10 -48 -4 0
-8 4 -8 10 0 5 -7 7 -15 4 -9 -4 -15 0 -15 9 0 10 -7 13 -20 10 -15 -4 -20 0
-20 16 0 14 -6 21 -20 21 -13 0 -20 7 -20 20 0 13 -7 20 -20 20 -13 0 -20 7
-20 20 0 13 -7 20 -20 20 -17 0 -20 7 -20 40 0 33 -3 40 -20 40 -17 0 -20 7
-20 40 0 33 -3 40 -20 40 -17 0 -20 7 -20 45 0 25 -4 45 -10 45 -11 0 -14 49
-4 74 3 9 12 16 19 16 7 0 16 12 20 27 3 15 10 30 15 33 4 3 10 14 12 25 2 17
-2 19 -24 17 l-28 -3 0 80 c0 74 -2 81 -20 81 -17 0 -20 7 -20 40 l0 40 -40 0
c-33 0 -40 3 -40 20 0 17 -7 20 -40 20 l-40 0 0 40 0 40 -40 0 c-33 0 -40 3
-40 20 0 13 -7 20 -20 20 -13 0 -20 7 -20 20 0 18 -7 20 -60 20 -54 0 -60 2
-60 21 0 20 -4 21 -69 17 l-69 -4 -6 66 c-4 37 -4 73 -2 81 3 8 12 84 20 169
9 85 17 169 20 185 11 69 36 265 42 328 12 123 -2 69 -29 -115z m213 -1298 c0
-13 -7 -20 -20 -20 -19 0 -27 20 -13 33 13 14 33 6 33 -13z m-885 -74 c110 -8
204 -11 209 -8 5 3 6 0 2 -6 -4 -7 -2 -12 3 -12 6 0 11 -7 11 -15 0 -8 5 -15
10 -15 6 0 10 -27 10 -60 0 -53 -2 -60 -20 -60 -17 0 -20 -7 -20 -40 l0 -40
-40 0 c-33 0 -40 -3 -40 -20 0 -17 -7 -20 -40 -20 -29 0 -40 -4 -40 -15 0 -11
-12 -15 -49 -15 -27 0 -64 -6 -82 -14 -43 -18 -65 -7 -73 37 -3 19 -12 34 -19
35 -6 1 -26 4 -43 8 -24 4 -37 0 -63 -22 -30 -25 -32 -31 -29 -76 3 -47 2 -48
-30 -54 -18 -4 -45 -3 -60 1 -57 14 -104 17 -115 6 -6 -6 -21 -11 -34 -11 -17
0 -23 -6 -23 -21 0 -18 -2 -19 -15 -9 -9 8 -15 9 -15 2 0 -6 5 -14 10 -17 6
-3 7 -17 4 -31 -4 -14 -2 -24 5 -24 6 0 11 -9 11 -20 0 -11 5 -20 12 -20 6 0
9 -3 6 -6 -3 -3 12 -24 33 -46 46 -49 44 -63 -3 -22 -56 48 -119 132 -135 180
-20 60 -13 154 17 219 45 96 91 147 171 188 119 61 158 64 474 43z m781 -244
c22 -17 50 -62 39 -62 -3 0 -16 12 -29 27 -20 23 -31 27 -66 25 -45 -3 -84
-22 -113 -56 -17 -21 -17 -20 -7 9 17 47 58 75 110 75 28 0 53 -7 66 -18z
m-45 -42 c10 -6 19 -15 19 -21 0 -6 -7 -6 -19 1 -31 16 -50 12 -76 -16 -14
-15 -25 -22 -25 -15 0 18 46 61 65 61 9 0 25 -5 36 -10z m-944 -11 c14 -14 -4
-59 -23 -59 -43 0 -60 39 -26 59 22 14 36 13 49 0z m1811 -11 c7 -7 12 -23 11
-37 0 -24 -1 -24 -9 -6 -13 35 -35 48 -50 30 -7 -8 -10 -22 -6 -30 3 -8 1 -15
-4 -15 -14 0 -12 44 2 58 7 7 19 12 28 12 9 0 21 -5 28 -12z m-878 -44 c0 -9
-7 -14 -17 -12 -25 5 -28 28 -4 28 12 0 21 -6 21 -16z m-947 -81 c-7 -2 -19
-2 -25 0 -7 3 -2 5 12 5 14 0 19 -2 13 -5z m2330 -290 c-13 -2 -33 -2 -45 0
-13 2 -3 4 22 4 25 0 35 -2 23 -4z"/>
<path d="M5720 4555 c-26 -32 13 -81 48 -59 34 22 22 74 -18 74 -10 0 -23 -7
-30 -15z"/>
<path d="M3610 4451 c-22 -43 1 -78 45 -67 29 7 44 49 25 71 -18 21 -57 19
-70 -4z"/>
<path d="M6010 4277 c29 -15 37 -48 16 -66 -36 -30 -81 12 -57 51 13 21 13 22
-2 9 -20 -16 -22 -62 -5 -79 31 -31 98 0 98 46 0 22 -34 52 -60 52 -8 0 -4 -6
10 -13z"/>
<path d="M5980 4235 c0 -16 27 -32 37 -22 5 6 -21 37 -31 37 -3 0 -6 -7 -6
-15z"/>
<path d="M3610 4124 c-11 -12 -11 -18 2 -30 16 -16 48 -9 48 10 0 13 -20 36
-31 36 -4 0 -12 -7 -19 -16z"/>
<path d="M5636 4097 c-39 -39 -15 -107 36 -107 23 0 68 43 68 65 0 21 -44 65
-65 65 -9 0 -26 -11 -39 -23z"/>
<path d="M5984 4012 c-64 -41 -71 -134 -13 -186 28 -25 38 -28 81 -24 26 3 57
13 67 22 25 23 44 98 32 128 -25 65 -110 95 -167 60z m126 -42 c12 -22 13 -70
2 -87 -9 -14 -99 -10 -130 6 -40 22 -23 83 31 106 36 15 82 3 97 -25z"/>
<path d="M6024 3925 c-10 -24 12 -42 34 -29 24 16 21 38 -6 42 -13 2 -25 -3
-28 -13z"/>
<path d="M5686 3828 c-22 -30 -20 -61 4 -83 27 -24 70 -22 92 5 23 29 23 41
-3 74 -26 33 -71 35 -93 4z m37 -8 c-13 -5 -23 -15 -23 -21 0 -7 -3 -9 -6 -6
-10 10 16 37 35 36 11 0 9 -3 -6 -9z"/>
<path d="M5571 3744 c0 -11 3 -14 6 -6 3 7 2 16 -1 19 -3 4 -6 -2 -5 -13z"/>
<path d="M5967 3349 c-22 -17 -24 -25 -18 -74 2 -18 60 -47 80 -40 10 3 24 19
31 35 26 62 -42 120 -93 79z m53 -18 c0 -11 -31 -24 -39 -16 -3 3 1 10 9 15
19 12 30 12 30 1z"/>
<path d="M4113 3153 c48 -2 125 -2 170 0 45 1 6 3 -88 3 -93 0 -130 -2 -82 -3z"/>
<path d="M5048 3153 c6 -2 18 -2 25 0 6 3 1 5 -13 5 -14 0 -19 -2 -12 -5z"/>
<path d="M5149 3129 c30 -10 56 -17 58 -15 5 5 -86 36 -101 35 -6 0 13 -9 43
-20z"/>
<path d="M4746 2945 c-10 -14 -26 -25 -39 -25 -18 0 -19 2 -7 11 12 8 10 9 -7
4 -15 -4 -23 -2 -23 6 0 7 -3 10 -6 7 -12 -12 17 -48 39 -48 30 0 44 11 56 43
13 34 8 35 -13 2z"/>
<path d="M4895 2923 c-48 -12 -95 -82 -95 -143 0 -31 22 -83 44 -105 37 -37
115 -46 166 -20 90 47 96 176 11 248 -32 27 -72 33 -126 20z m94 -37 c15 -8
32 -26 39 -41 13 -28 17 -83 5 -72 -4 4 -18 -4 -32 -17 -42 -39 -84 -38 -130
3 -30 27 -33 34 -27 65 12 65 81 94 145 62z"/>
<path d="M4924 2815 c-15 -11 -17 -17 -8 -32 15 -25 48 -23 52 3 4 31 -20 47
-44 29z"/>
<path d="M5000 2489 c0 -7 19 -8 58 -3 77 9 78 14 4 14 -38 0 -62 -4 -62 -11z"/>
<path d="M5043 2472 c-7 -4 -9 -13 -4 -21 6 -9 14 -10 22 -5 8 5 39 14 69 20
l55 12 -65 1 c-36 0 -70 -3 -77 -7z"/>
<path d="M5090 2430 c0 -5 7 -10 16 -10 8 0 12 5 9 10 -3 6 -10 10 -16 10 -5
0 -9 -4 -9 -10z"/>
<path d="M2036 7613 c-11 -11 -6 -23 9 -23 8 0 15 4 15 9 0 13 -16 22 -24 14z"/>
<path d="M8580 7663 c-77 -28 -74 -140 5 -162 61 -17 109 7 120 61 15 67 -58
125 -125 101z m78 -39 c18 -12 22 -24 20 -52 -4 -47 -39 -68 -86 -51 -43 15
-49 41 -17 75 14 15 25 31 25 35 0 14 34 10 58 -7z"/>
<path d="M3288 7168 c12 -13 22 -32 22 -41 0 -9 5 -17 10 -17 13 0 13 4 -1 33
-6 12 -20 29 -32 36 -22 14 -22 14 1 -11z"/>
<path d="M7513 6992 c-93 -72 4 -217 109 -161 30 16 51 74 37 102 -37 71 -98
97 -146 59z m91 -32 c33 -12 43 -52 22 -85 -31 -48 -126 -22 -126 34 0 21 44
61 66 61 7 0 24 -4 38 -10z"/>
<path d="M5068 6215 c-3 -3 -14 -7 -24 -9 -11 -3 -30 -9 -44 -15 -24 -9 -24
-10 -3 -10 12 -1 24 3 27 7 3 5 36 8 73 7 37 -2 57 0 43 3 l-25 5 25 8 c20 6
16 7 -21 8 -25 1 -48 -1 -51 -4z"/>
<path d="M5228 6213 c12 -2 30 -2 40 0 9 3 -1 5 -23 4 -22 0 -30 -2 -17 -4z"/>
<path d="M5330 6190 c20 -13 33 -13 25 0 -3 6 -14 10 -23 10 -15 0 -15 -2 -2
-10z"/>
<path d="M5380 6177 c0 -2 22 -18 48 -35 112 -73 187 -187 219 -334 17 -80 36
-108 26 -40 -23 169 -71 258 -187 346 -46 35 -106 71 -106 63z"/>
<path d="M5108 5693 c6 -2 13 -17 13 -31 1 -21 2 -23 6 -7 3 11 10 26 15 33 8
9 4 12 -18 11 -16 0 -23 -3 -16 -6z"/>
<path d="M5270 5636 c0 -2 8 -10 18 -17 15 -13 16 -12 3 4 -13 16 -21 21 -21
13z"/>
<path d="M4944 5608 l-19 -23 23 19 c12 11 22 21 22 23 0 8 -8 2 -26 -19z"/>
<path d="M5305 5585 c32 -82 35 -117 15 -185 -20 -68 -48 -103 -105 -133 -18
-10 -23 -16 -14 -17 9 0 40 21 68 46 52 47 81 110 81 176 0 30 -27 107 -43
123 -7 7 -7 3 -2 -10z"/>
<path d="M4891 5475 c0 -16 4 -37 9 -45 8 -12 10 -10 9 10 0 14 -4 34 -9 45
-7 17 -9 16 -9 -10z"/>
<path d="M4916 5380 c3 -14 20 -38 37 -55 29 -27 29 -28 7 -2 -13 15 -30 40
-37 55 -12 26 -13 26 -7 2z"/>
<path d="M5119 5323 c0 -38 0 -141 1 -231 1 -161 1 -162 -22 -171 -36 -14 -59
-46 -65 -90 -5 -35 -2 -44 25 -71 24 -23 39 -30 70 -30 54 0 70 7 87 41 32 60
8 123 -55 149 l-31 13 3 228 c2 126 0 229 -4 229 -5 0 -8 -30 -9 -67z m40
-428 c46 -23 56 -74 19 -99 -32 -23 -45 -20 -17 4 25 20 11 27 -21 10 -12 -6
-28 -7 -44 -1 -17 7 -26 7 -30 -2 -2 -7 -5 4 -5 23 -1 40 5 52 34 68 26 15 31
15 64 -3z"/>
<path d="M4741 5216 c-17 -19 -20 -26 -9 -32 7 -4 10 -3 5 1 -4 5 3 19 15 32
12 13 19 23 16 23 -2 0 -15 -11 -27 -24z"/>
<path d="M4810 5193 c-31 -11 -71 -58 -81 -96 -15 -55 11 -105 70 -134 62 -32
112 -17 152 44 61 92 -39 223 -141 186z m94 -49 c37 -38 35 -62 -3 -35 -37 27
-75 27 -113 0 l-30 -22 17 32 c28 55 87 66 129 25z"/>
<path d="M4640 4990 c0 -5 5 -10 10 -10 6 0 10 5 10 10 0 6 -4 10 -10 10 -5 0
-10 -4 -10 -10z"/>
<path d="M4623 4878 c2 -7 10 -13 17 -13 7 0 15 6 18 13 2 7 -5 12 -18 12 -13
0 -20 -5 -17 -12z"/>
<path d="M5242 4778 c-25 -25 -7 -68 28 -68 9 0 25 9 34 19 34 38 -26 85 -62
49z m43 -28 c0 -22 -29 -18 -33 3 -3 14 1 18 15 15 10 -2 18 -10 18 -18z"/>
<path d="M2957 5735 c10 -13 22 -25 27 -25 5 0 -1 11 -14 25 -30 32 -36 32
-13 0z"/>
<path d="M2822 5733 c-34 -30 -36 -57 -6 -92 14 -17 34 -31 43 -31 23 0 58 38
66 72 13 53 -59 89 -103 51z"/>
<path d="M7005 5831 c-3 -5 -1 -12 5 -16 5 -3 10 1 10 9 0 18 -6 21 -15 7z"/>
<path d="M2295 5375 c-30 -29 -32 -58 -5 -85 27 -27 71 -26 98 3 29 31 28 61
-4 86 -35 27 -59 26 -89 -4z"/>
<path d="M2461 5324 c0 -11 3 -14 6 -6 3 7 2 16 -1 19 -3 4 -6 -2 -5 -13z"/>
<path d="M2520 5262 c6 -13 14 -21 18 -18 3 4 -2 14 -12 24 -18 16 -18 16 -6
-6z"/>
<path d="M2590 5180 c0 -5 5 -10 11 -10 5 0 7 5 4 10 -3 6 -8 10 -11 10 -2 0
-4 -4 -4 -10z"/>
<path d="M8172 5215 c-36 -30 -56 -76 -48 -110 9 -35 61 -92 91 -99 74 -19
165 93 135 165 -28 66 -124 90 -178 44z m118 -20 c23 -15 31 -55 15 -85 -30
-57 -91 -68 -124 -21 -12 16 -21 41 -21 55 0 47 83 80 130 51z"/>
<path d="M7294 5206 c-31 -14 -54 -56 -54 -98 0 -34 45 -68 90 -68 45 0 75 23
86 66 9 35 -19 92 -52 104 -31 12 -32 12 -70 -4z m86 -41 c7 -8 13 -26 13 -40
0 -36 -21 -55 -59 -55 -57 0 -84 51 -47 92 20 22 76 24 93 3z"/>
<path d="M1901 5120 c0 -3 6 -30 13 -60 11 -49 14 -53 24 -34 9 17 6 28 -13
60 -14 21 -24 37 -24 34z"/>
<path d="M3060 4849 c0 -5 5 -7 10 -4 6 3 10 8 10 11 0 2 -4 4 -10 4 -5 0 -10
-5 -10 -11z"/>
<path d="M2534 4856 c-15 -24 -15 -28 0 -52 24 -35 67 -30 80 9 21 58 -46 93
-80 43z m56 -11 c13 -16 6 -35 -15 -35 -18 0 -28 17 -21 35 7 19 20 19 36 0z"/>
<path d="M7907 4873 c-11 -10 -8 -41 5 -49 8 -5 9 -2 5 10 -4 10 -3 15 3 11
18 -11 32 5 19 21 -13 15 -22 18 -32 7z"/>
<path d="M7241 4701 c-28 -28 -26 -67 4 -97 38 -38 76 -30 93 19 10 31 10 44
-1 65 -16 36 -67 42 -96 13z m73 -17 c12 -32 6 -55 -19 -66 -45 -20 -73 25
-38 64 20 22 49 23 57 2z"/>
<path d="M8367 4562 c-34 -38 -8 -100 37 -86 34 10 46 24 46 53 0 50 -50 69
-83 33z m53 -18 c11 -12 11 -18 -2 -31 -19 -18 -38 -10 -38 16 0 33 20 40 40
15z"/>
<path d="M8503 4190 c0 -25 2 -35 4 -22 2 12 2 32 0 45 -2 12 -4 2 -4 -23z"/>
<path d="M1023 4508 c-30 -15 -56 -72 -48 -107 8 -38 34 -61 78 -68 31 -5 40
-1 67 25 22 22 30 40 30 66 0 65 -71 112 -127 84z m82 -32 c24 -17 24 -69 0
-96 -24 -27 -70 -26 -89 2 -45 64 27 140 89 94z"/>
<path d="M7572 4274 c-16 -11 -22 -25 -22 -54 0 -68 49 -91 95 -45 30 29 32
68 5 95 -24 24 -48 25 -78 4z m50 -48 c-3 -21 0 -26 10 -21 7 3 5 0 -6 -9 -14
-11 -24 -13 -37 -5 -23 12 -24 32 -3 54 23 22 40 13 36 -19z"/>
<path d="M2051 4113 c1 -4 1 -17 0 -28 -2 -20 -2 -20 -16 -1 -16 21 -21 10 -6
-13 5 -8 16 -11 25 -8 18 7 22 42 6 52 -6 4 -10 3 -9 -2z"/>
<path d="M1272 3926 c1 -10 8 -17 13 -17 15 1 12 24 -3 29 -9 3 -13 -2 -10
-12z"/>
<path d="M7321 4154 c0 -11 3 -14 6 -6 3 7 2 16 -1 19 -3 4 -6 -2 -5 -13z"/>
<path d="M2463 4043 c15 -2 37 -2 50 0 12 2 0 4 -28 4 -27 0 -38 -2 -22 -4z"/>
<path d="M7500 3779 c0 -15 4 -19 16 -15 9 3 20 6 25 6 5 0 9 8 8 18 0 10 -3
12 -6 5 -2 -7 -11 -13 -19 -13 -9 0 -12 5 -9 10 3 6 1 10 -4 10 -6 0 -11 -9
-11 -21z"/>
<path d="M7950 3829 c0 -32 25 -51 57 -43 23 6 37 40 21 51 -7 3 -8 1 -4 -5 4
-7 2 -12 -3 -12 -6 0 -11 4 -11 8 0 4 -13 13 -30 19 -29 11 -30 10 -30 -18z"/>
<path d="M8031 3777 c-13 -21 -12 -21 5 -5 10 10 16 20 13 22 -3 3 -11 -5 -18
-17z"/>
<path d="M4682 3778 c-7 -7 -12 -24 -12 -38 0 -14 5 -31 12 -38 17 -17 264
-16 298 1 31 16 39 56 14 74 -24 18 -295 18 -312 1z m266 -45 c3 -10 -23 -13
-107 -13 -102 0 -123 5 -104 24 13 12 206 2 211 -11z"/>
<path d="M2322 3638 c7 -15 15 -23 17 -17 2 6 -4 18 -13 27 -15 15 -15 15 -4
-10z"/>
<path d="M7908 1799 c-24 -14 -23 -56 2 -69 38 -21 80 22 60 61 -12 21 -35 24
-62 8z m48 -20 c10 -17 -23 -46 -37 -32 -7 7 -9 19 -6 27 7 18 33 21 43 5z"/>
<path d="M7920 1765 c0 -8 5 -15 10 -15 6 0 10 7 10 15 0 8 -4 15 -10 15 -5 0
-10 -7 -10 -15z"/>
<path d="M6071 1705 c-28 -32 -32 -44 -28 -72 7 -43 23 -62 64 -80 46 -19 67
-16 102 13 27 22 31 33 31 73 0 60 -29 91 -92 98 -41 5 -46 2 -77 -32z m121
-2 c23 -26 31 -60 19 -81 -21 -39 -123 -33 -136 8 -7 21 18 75 37 83 28 11 66
6 80 -10z"/>
<path d="M5260 1566 c0 -2 7 -7 16 -10 8 -3 12 -2 9 4 -6 10 -25 14 -25 6z"/>
<path d="M4072 1488 c2 -25 8 -33 23 -33 15 0 21 8 23 33 3 29 1 32 -23 32
-24 0 -26 -3 -23 -32z"/>
<path d="M4528 1383 c7 -3 16 -2 19 1 4 3 -2 6 -13 5 -11 0 -14 -3 -6 -6z"/>
<path d="M3351 8621 c-16 -28 -14 -46 7 -64 25 -23 45 -21 68 4 17 19 17 23 3
47 -19 34 -63 42 -78 13z m57 -29 c3 -16 -2 -22 -16 -22 -27 0 -33 10 -21 32
13 24 33 19 37 -10z"/>
<path d="M6680 8630 c0 -5 7 -10 15 -10 8 0 15 5 15 10 0 6 -7 10 -15 10 -8 0
-15 -4 -15 -10z"/>
<path d="M3420 8516 c0 -8 4 -17 8 -20 5 -3 37 -52 72 -110 36 -58 66 -103 69
-101 6 7 -20 56 -118 217 -18 30 -31 36 -31 14z"/>
<path d="M6930 8490 c-11 -11 -20 -30 -20 -42 0 -11 -12 -37 -27 -57 l-26 -36
30 28 c22 20 37 27 51 23 55 -18 105 51 62 86 -29 23 -45 23 -70 -2z m44 -11
c-3 -5 -10 -7 -15 -3 -5 3 -7 10 -3 15 3 5 10 7 15 3 5 -3 7 -10 3 -15z"/>
<path d="M5536 8467 c-8 -12 -15 -31 -14 -42 1 -11 -1 -47 -5 -80 -4 -38 -3
-51 2 -35 5 14 9 37 10 53 1 30 12 35 31 12 16 -20 54 -19 74 1 22 21 20 77
-2 97 -27 25 -78 22 -96 -6z m89 -27 c0 -20 -6 -26 -28 -28 -16 -2 -25 -8 -21
-14 4 -6 1 -9 -6 -6 -28 9 -35 36 -15 58 27 30 70 24 70 -10z m-5 -50 c0 -5
-8 -10 -17 -10 -15 0 -16 2 -3 10 19 12 20 12 20 0z"/>
<path d="M2650 8416 c-125 -27 -237 -114 -288 -223 -24 -52 -27 -69 -27 -168
0 -104 2 -114 32 -175 34 -69 94 -137 156 -177 22 -13 53 -41 70 -61 18 -20
65 -72 106 -115 58 -60 72 -80 63 -89 -7 -7 -12 -29 -12 -49 0 -62 65 -96 101
-53 20 24 35 16 98 -51 33 -36 66 -65 74 -65 7 0 -22 37 -65 82 -43 45 -78 87
-78 94 0 7 -5 25 -12 39 -9 20 -18 25 -48 25 -35 0 -45 8 -136 107 -55 59 -90
103 -79 99 46 -17 141 -18 205 -2 191 49 322 230 307 423 -14 187 -152 336
-333 363 -38 5 -71 9 -74 9 -3 0 -30 -6 -60 -13z m201 -41 c57 -20 136 -80
170 -130 45 -65 62 -135 57 -228 -6 -104 -34 -171 -97 -230 -49 -46 -133 -99
-160 -102 -9 -1 -24 -6 -34 -10 -33 -14 -169 0 -213 23 -61 31 -136 104 -169
164 -28 50 -30 59 -30 168 0 108 2 118 29 167 53 96 144 168 243 193 48 12
147 4 204 -15z m-42 -988 c-2 -1 -13 -9 -24 -17 -19 -14 -19 -14 -6 3 7 9 18
17 24 17 6 0 8 -1 6 -3z"/>
<path d="M2678 8180 c-103 -31 -147 -143 -97 -246 38 -79 126 -106 208 -64
108 55 133 174 54 260 -46 52 -103 69 -165 50z m97 -34 c37 -16 75 -67 75
-101 0 -17 -2 -17 -13 5 -15 30 -82 70 -117 70 -34 0 -70 -26 -70 -51 0 -20 0
-20 29 0 38 28 55 26 80 -5 22 -28 18 -47 -14 -74 -14 -12 -21 -11 -48 3 -18
10 -45 21 -62 26 -26 7 -30 12 -28 40 1 36 16 57 58 83 36 22 64 23 110 4z"/>
<path d="M2696 8044 c-9 -22 17 -49 39 -40 10 3 15 15 13 28 -4 29 -42 37 -52
12z"/>
<path d="M4930 8414 c0 -9 3 -14 7 -11 3 4 13 2 20 -5 12 -10 11 -14 -9 -29
-12 -10 -21 -20 -18 -22 3 -3 16 5 30 17 l26 21 -28 23 c-24 21 -28 21 -28 6z"/>
<path d="M3996 8303 c31 -65 60 -122 66 -128 15 -14 11 -4 -52 128 -30 64 -58
117 -62 117 -4 0 18 -53 48 -117z"/>
<path d="M4396 8330 c4 -19 10 -42 15 -50 11 -18 1 34 -13 65 -5 13 -6 9 -2
-15z"/>
<path d="M7678 8260 c-144 -77 -124 -285 33 -332 75 -22 162 21 199 98 42 85
3 191 -84 234 -53 25 -100 25 -148 0z m157 -45 c24 -23 35 -52 16 -40 -5 3
-12 1 -16 -5 -4 -6 -17 -4 -37 6 -50 26 -93 12 -114 -37 -12 -26 -23 -38 -32
-34 -7 3 -18 5 -23 5 -5 0 -9 12 -9 26 0 17 14 40 39 65 36 36 43 39 95 39 47
0 61 -4 81 -25z m-41 -146 c-28 -31 -95 -20 -94 16 0 5 5 2 11 -7 22 -38 87
-12 90 35 2 21 2 21 6 -1 3 -14 -3 -32 -13 -43z"/>
<path d="M8227 8252 c-20 -22 -22 -63 -5 -80 7 -7 24 -12 40 -12 48 0 66 66
26 94 -29 21 -41 20 -61 -2z m60 -18 c2 -7 -6 -10 -22 -7 -20 4 -25 1 -25 -16
0 -11 5 -21 12 -21 6 0 8 -3 4 -7 -4 -5 -14 1 -21 11 -19 25 -2 58 27 54 12
-2 23 -8 25 -14z"/>
<path d="M3474 8187 c-100 -77 -147 -117 -140 -117 6 0 186 139 216 167 34 31
0 9 -76 -50z"/>
<path d="M4426 8230 c3 -14 11 -32 16 -40 6 -10 7 -7 2 10 -3 14 -11 32 -16
40 -6 10 -7 7 -2 -10z"/>
<path d="M3914 8226 c-10 -26 4 -48 28 -44 17 2 23 10 23 28 0 18 -6 26 -23
28 -13 2 -25 -3 -28 -12z"/>
<path d="M2030 8210 c0 -9 20 -14 41 -12 4 1 6 -13 5 -31 -2 -44 -38 -50 -59
-11 l-14 27 -5 -27 c-10 -51 64 -63 91 -15 13 24 13 29 -2 53 -17 25 -57 37
-57 16z"/>
<path d="M6790 8191 c0 -6 16 -23 37 -38 20 -15 69 -56 110 -91 40 -34 73 -58
73 -53 0 5 -4 11 -9 13 -5 2 -34 26 -63 53 -76 72 -148 128 -148 116z"/>
<path d="M1691 7944 c-57 -48 -47 -136 18 -164 62 -25 131 20 131 85 0 47 -14
71 -50 90 -41 21 -64 19 -99 -11z m109 -14 c42 -42 15 -114 -47 -126 -26 -5
-37 -1 -57 19 -31 31 -33 65 -5 101 26 33 79 36 109 6z"/>
<path d="M6526 7917 c3 -10 9 -15 12 -12 3 3 0 11 -7 18 -10 9 -11 8 -5 -6z"/>
<path d="M6621 7831 c41 -37 89 -80 106 -95 18 -15 42 -41 54 -58 l22 -30 -49
-51 -49 -52 53 50 53 50 22 -25 c77 -90 99 -113 92 -100 -31 57 -211 250 -326
349 -68 58 -52 32 22 -38z"/>
<path d="M8232 7889 c-25 -9 -40 -55 -25 -78 6 -9 26 -17 47 -19 31 -3 37 0
46 22 19 52 -18 93 -68 75z m52 -35 c8 -21 -3 -41 -24 -47 -24 -6 -30 0 -30
33 0 15 3 29 6 32 9 10 42 -3 48 -18z"/>
<path d="M3139 7863 l-24 -28 28 24 c25 23 32 31 24 31 -2 0 -14 -12 -28 -27z"/>
<path d="M3916 7855 c-20 -14 -41 -25 -46 -25 -19 0 -10 -21 21 -53 l31 -32
-18 33 -19 34 40 34 c47 40 43 44 -9 9z"/>
<path d="M8785 7836 c-18 -26 -11 -52 16 -67 22 -12 53 2 63 27 9 23 -20 64
-44 64 -11 0 -26 -11 -35 -24z m61 -11 c8 -20 -13 -45 -32 -38 -14 5 -19 34
-7 46 11 12 33 7 39 -8z"/>
<path d="M3067 7773 c-48 -63 -60 -83 -54 -83 3 0 28 32 56 70 61 84 60 94 -2
13z"/>
<path d="M7580 7815 c-26 -32 13 -81 48 -59 34 22 22 74 -18 74 -10 0 -23 -7
-30 -15z m41 -30 c-1 -15 -24 -12 -29 3 -3 9 2 13 12 10 10 -1 17 -7 17 -13z"/>
<path d="M6929 7793 l-24 -28 28 24 c15 14 27 26 27 28 0 8 -8 1 -31 -24z"/>
<path d="M3277 7804 c-13 -14 -7 -52 10 -58 25 -10 51 20 37 42 -12 19 -36 27
-47 16z"/>
<path d="M3626 7721 c-18 -19 -18 -22 -2 -46 21 -32 43 -32 58 1 22 48 -22 83
-56 45z m42 -24 c2 -10 -3 -17 -12 -17 -18 0 -29 16 -21 31 9 14 29 6 33 -14z"/>
<path d="M2985 7654 c-9 -15 -12 -23 -6 -20 11 7 35 46 28 46 -3 0 -12 -12
-22 -26z"/>
<path d="M1665 7619 c-10 -30 18 -58 43 -43 9 6 17 22 17 35 0 34 -50 41 -60
8z m40 -19 c-5 -8 -11 -8 -17 -2 -6 6 -7 16 -3 22 5 8 11 8 17 2 6 -6 7 -16 3
-22z"/>
<path d="M8128 7623 c7 -3 16 -2 19 1 4 3 -2 6 -13 5 -11 0 -14 -3 -6 -6z"/>
<path d="M7356 7543 c25 -46 48 -83 51 -83 7 0 -67 133 -83 150 -8 8 6 -22 32
-67z"/>
<path d="M1457 7594 c-10 -10 -9 -42 2 -48 4 -3 6 6 3 19 -3 21 0 25 18 25 19
0 22 -4 17 -26 -3 -16 -1 -22 5 -16 16 16 5 47 -18 50 -11 2 -23 0 -27 -4z"/>
<path d="M6940 7486 c0 -2 8 -10 18 -17 15 -13 16 -12 3 4 -13 16 -21 21 -21
13z"/>
<path d="M7880 7475 c15 -18 3 -38 -19 -30 -13 5 -14 4 -3 -6 10 -11 15 -10
28 3 18 17 13 48 -7 48 -8 0 -8 -4 1 -15z"/>
<path d="M3104 7469 c-11 -18 14 -35 29 -20 6 7 8 12 2 11 -22 -5 -29 1 -15
10 9 6 10 10 3 10 -6 0 -15 -5 -19 -11z"/>
<path d="M7094 7458 l-19 -23 23 19 c21 18 27 26 19 26 -2 0 -12 -10 -23 -22z"/>
<path d="M2855 7450 c-3 -5 -1 -10 4 -10 6 0 11 5 11 10 0 6 -2 10 -4 10 -3 0
-8 -4 -11 -10z"/>
<path d="M7420 7425 c0 -5 5 -17 10 -25 5 -8 10 -10 10 -5 0 6 -5 17 -10 25
-5 8 -10 11 -10 5z"/>
<path d="M8021 7398 c-38 -39 -48 -83 -28 -131 22 -51 57 -71 114 -64 38 4 54
12 81 42 31 34 34 41 29 83 -7 66 -49 102 -116 102 -41 0 -53 -5 -80 -32z
m134 -13 c35 -35 33 -76 -6 -109 -40 -34 -81 -34 -108 0 -29 37 -27 79 5 109
35 32 78 32 109 0z"/>
<path d="M8067 7285 c3 -8 9 -12 14 -9 12 7 11 11 -5 17 -10 4 -13 1 -9 -8z"/>
<path d="M8105 7280 c3 -5 10 -10 16 -10 5 0 9 5 9 10 0 6 -7 10 -16 10 -8 0
-12 -4 -9 -10z"/>
<path d="M1383 7376 c-93 -30 -176 -108 -221 -204 -22 -48 -26 -71 -26 -148
-1 -82 2 -96 32 -157 51 -103 139 -167 265 -191 l57 -11 0 -560 c0 -318 -4
-554 -9 -545 -17 30 -61 224 -61 270 0 26 -5 61 -11 79 -9 25 -8 49 5 111 12
61 13 91 6 132 -25 130 -157 200 -291 153 -163 -58 -186 -272 -40 -377 43 -31
129 -58 184 -58 31 0 46 -7 71 -32 35 -35 48 -67 91 -217 15 -52 34 -105 42
-118 8 -12 19 -55 24 -95 9 -74 31 -145 57 -186 26 -39 23 -17 -4 43 -38 82
-44 209 -43 868 l1 537 24 0 c90 0 241 113 285 212 18 43 23 71 23 148 1 85
-2 101 -28 152 -37 72 -105 141 -175 175 -65 32 -190 41 -258 19z m220 -33
c59 -18 144 -94 175 -155 48 -97 48 -221 0 -293 -22 -33 -98 -95 -116 -95 -7
0 -12 -4 -12 -8 0 -5 -19 -14 -42 -21 -24 -7 -57 -17 -74 -22 -39 -12 -71 -12
-79 1 -3 5 -12 7 -19 4 -8 -3 -46 4 -84 15 -55 17 -77 30 -107 62 -112 124
-104 317 18 439 91 91 205 116 340 73z m-306 -1054 c55 -27 93 -88 93 -150 0
-53 -17 -119 -31 -119 -6 0 -7 -5 -3 -12 4 -6 3 -8 -4 -4 -6 3 -14 1 -18 -5
-13 -21 -89 -49 -135 -49 -67 0 -133 45 -164 113 -29 61 -30 75 -10 125 45
106 168 152 272 101z"/>
<path d="M1450 7142 c-103 -46 -108 -171 -10 -212 79 -33 170 20 170 99 0 77
-94 142 -160 113z m104 -58 c68 -69 -16 -174 -104 -129 -38 20 -54 50 -46 89
13 66 100 89 150 40z"/>
<path d="M1055 6194 c-48 -101 32 -224 145 -224 95 0 164 66 164 156 1 29 -4
58 -11 65 -9 9 -10 2 -6 -28 7 -55 -25 -126 -69 -153 -66 -40 -160 -20 -198
43 -22 36 -27 116 -9 149 6 11 9 22 6 24 -2 3 -12 -12 -22 -32z"/>
<path d="M1170 6151 c-17 -33 -12 -61 15 -73 21 -9 28 -8 45 7 22 20 26 55 8
73 -18 18 -56 14 -68 -7z"/>
<path d="M7020 7381 c0 -6 4 -13 10 -16 6 -3 7 1 4 9 -7 18 -14 21 -14 7z"/>
<path d="M6958 7344 c-21 -19 -38 -38 -38 -42 0 -3 18 12 40 33 37 36 44 45
38 45 -2 0 -20 -16 -40 -36z"/>
<path d="M7050 7330 c6 -11 13 -20 16 -20 2 0 0 9 -6 20 -6 11 -13 20 -16 20
-2 0 0 -9 6 -20z"/>
<path d="M7102 7235 c12 -24 23 -43 26 -41 4 5 -36 86 -43 86 -3 0 5 -20 17
-45z"/>
<path d="M8720 7225 c-6 -8 -10 -22 -8 -32 4 -24 47 -24 62 0 9 15 7 21 -8 33
-25 18 -31 18 -46 -1z m40 -20 c0 -8 -6 -15 -14 -15 -17 0 -28 14 -19 24 12
12 33 6 33 -9z"/>
<path d="M2100 7140 c-32 -32 -24 -63 32 -134 59 -74 90 -92 131 -77 44 17 37
65 -19 140 -70 93 -105 110 -144 71z m91 -37 c44 -47 79 -93 79 -104 0 -5 -9
-18 -20 -29 -27 -27 -49 -16 -105 48 -48 57 -57 94 -27 111 27 16 36 13 73
-26z"/>
<path d="M8635 7032 c19 -39 13 -64 -22 -92 -34 -26 -54 -25 -87 5 -28 26 -35
71 -13 95 10 12 9 12 -4 2 -44 -33 -25 -121 31 -140 83 -30 157 73 100 139
l-21 24 16 -33z"/>
<path d="M2006 6894 c-4 -10 -2 -22 3 -27 14 -14 43 0 39 20 -4 24 -34 28 -42
7z"/>
<path d="M9007 6885 c-28 -27 1 -73 38 -59 20 8 29 42 15 59 -16 19 -35 19
-53 0z m39 -16 c10 -17 -13 -36 -27 -22 -12 12 -4 33 11 33 5 0 12 -5 16 -11z"/>
<path d="M8740 6753 c-31 -11 -71 -58 -80 -95 -21 -75 40 -148 124 -148 31 0
45 7 77 39 32 32 39 46 39 77 0 87 -85 154 -160 127z m100 -40 c37 -35 52 -93
24 -93 -16 0 -17 -2 -4 -10 13 -9 10 -15 -18 -40 -24 -23 -42 -30 -72 -30 -22
0 -40 3 -40 8 0 4 19 7 42 7 26 0 43 5 46 14 3 10 0 12 -14 7 -11 -4 -38 -9
-62 -10 -51 -3 -62 11 -62 74 0 88 95 131 160 73z"/>
<path d="M8761 6647 c-7 -7 -7 -14 0 -23 12 -15 39 -7 39 11 0 18 -25 26 -39
12z"/>
<path d="M1061 6694 c-27 -35 -26 -59 4 -89 46 -47 125 -17 125 48 0 64 -89
92 -129 41z m84 -7 c25 -19 10 -37 -31 -37 -35 0 -44 16 -22 38 16 16 30 15
53 -1z"/>
<path d="M7056 6557 c3 -10 9 -15 12 -12 3 3 0 11 -7 18 -10 9 -11 8 -5 -6z"/>
<path d="M1586 6525 c-24 -24 -28 -52 -13 -82 19 -35 174 -210 193 -217 18 -7
61 22 69 45 9 26 -6 52 -75 135 -118 141 -138 155 -174 119z m55 -17 c9 -7 31
-33 49 -58 19 -25 51 -64 72 -87 21 -24 38 -48 38 -55 -1 -7 -17 5 -36 27 -20
22 -40 39 -46 37 -5 -1 -7 2 -3 8 3 5 1 10 -5 10 -6 0 -9 4 -6 9 3 4 -13 25
-36 46 -37 35 -42 37 -53 22 -7 -9 -15 -17 -19 -17 -11 0 -6 46 6 58 15 15 21
15 39 0z"/>
<path d="M9094 6495 c-13 -21 -15 -31 -6 -50 13 -28 57 -43 81 -28 20 12 27
69 10 89 -19 23 -66 17 -85 -11z m73 -11 c3 -8 -2 -23 -11 -32 -14 -15 -18
-15 -31 -1 -9 9 -13 23 -9 32 8 21 43 22 51 1z"/>
<path d="M1970 6475 c0 -8 7 -15 15 -15 8 0 15 7 15 15 0 8 -7 15 -15 15 -8 0
-15 -7 -15 -15z"/>
<path d="M8770 6395 c0 -8 7 -15 15 -15 8 0 15 7 15 15 0 8 -7 15 -15 15 -8 0
-15 -7 -15 -15z"/>
<path d="M8556 6240 c-34 -11 -82 -54 -102 -93 -16 -30 -21 -100 -9 -138 21
-67 92 -119 161 -119 93 0 174 79 174 170 0 120 -117 214 -224 180z m109 -34
c62 -26 96 -135 59 -191 -21 -32 -44 -32 -44 0 0 22 -4 25 -33 25 -18 0 -43 7
-55 16 -22 15 -25 15 -45 -3 -12 -10 -25 -22 -29 -28 -5 -7 -14 -6 -25 1 -14
9 -18 24 -17 64 2 42 7 57 30 82 47 50 96 60 159 34z"/>
<path d="M9056 6217 c3 -10 9 -15 12 -12 3 3 0 11 -7 18 -10 9 -11 8 -5 -6z"/>
<path d="M9056 6174 c-4 -11 -14 -15 -31 -12 -13 3 -22 1 -19 -3 8 -14 40 -10
54 6 7 9 11 18 8 21 -3 3 -8 -3 -12 -12z"/>
<path d="M2785 6159 c-4 -6 -5 -12 -3 -14 7 -7 48 7 48 16 0 13 -37 11 -45 -2z"/>
<path d="M1662 6068 c-16 -16 -15 -77 1 -83 6 -2 92 -6 189 -7 l177 -3 -27 28
c-21 22 -28 25 -30 13 -3 -14 -23 -16 -126 -16 l-123 0 5 25 c8 44 -36 73 -66
43z m46 -41 c2 -19 -1 -27 -12 -27 -11 0 -16 10 -16 31 0 38 24 35 28 -4z"/>
<path d="M9223 6016 c-24 -21 -26 -27 -18 -52 14 -39 55 -53 89 -30 34 21 35
68 4 90 -30 21 -42 20 -75 -8z m67 -16 c0 -5 -9 -10 -20 -10 -11 0 -20 5 -20
10 0 6 9 10 20 10 11 0 20 -4 20 -10z"/>
<path d="M8216 5954 c-19 -18 -21 -55 -4 -72 7 -7 24 -12 38 -12 14 0 31 5 38
12 7 7 12 24 12 38 0 14 -5 31 -12 38 -17 17 -54 15 -72 -4z m68 -20 c7 -17
-9 -54 -24 -54 -33 0 -55 42 -33 63 12 13 51 7 57 -9z"/>
<path d="M1821 5934 c-15 -19 -21 -41 -21 -79 0 -47 4 -56 31 -79 17 -15 43
-26 59 -26 34 0 90 44 90 71 0 26 8 24 50 -13 19 -17 -6 10 -57 60 -54 54
-100 92 -112 92 -11 0 -29 -12 -40 -26z m45 -19 c-3 -9 8 -30 25 -50 26 -29
29 -38 19 -50 -16 -19 -44 -19 -60 0 -7 8 -15 13 -19 11 -12 -8 -12 63 -1 84
13 23 45 28 36 5z m69 -40 c30 -29 31 -45 7 -76 -23 -28 -75 -30 -100 -4 -16
16 -16 17 5 6 44 -23 93 -8 93 28 0 8 -12 28 -27 43 -33 34 -12 38 22 3z"/>
<path d="M2040 5953 c0 -5 60 -72 134 -150 74 -78 146 -158 161 -177 15 -20
32 -36 38 -36 6 0 -5 17 -24 38 -20 20 -46 50 -58 66 -31 42 -251 268 -251
259z"/>
<path d="M8110 5739 c0 -5 5 -7 10 -4 6 3 10 8 10 11 0 2 -4 4 -10 4 -5 0 -10
-5 -10 -11z"/>
<path d="M1802 5699 c-59 -30 -93 -82 -99 -156 -5 -72 15 -115 74 -157 181
-126 382 121 226 278 -57 58 -129 71 -201 35z m142 -23 c40 -17 71 -58 80
-106 5 -30 3 -28 -19 19 -14 30 -27 52 -30 49 -3 -3 2 -19 11 -36 33 -67 -11
-132 -94 -140 -41 -4 -52 0 -80 23 -18 15 -32 31 -32 37 0 5 -7 25 -16 43 -13
29 -14 38 -2 61 27 55 113 79 182 50z"/>
<path d="M1832 5611 c-10 -6 -10 -10 2 -21 9 -7 13 -17 9 -24 -3 -6 0 -6 8 2
20 18 39 15 48 -10 14 -37 -5 -61 -45 -56 -21 2 -33 0 -31 -6 6 -19 77 -19 98
0 34 31 23 86 -22 109 -32 17 -48 18 -67 6z"/>
<path d="M7999 5653 c-13 -16 -12 -17 4 -4 9 7 17 15 17 17 0 8 -8 3 -21 -13z"/>
<path d="M906 5588 c-36 -51 -5 -118 54 -118 38 0 70 32 70 70 0 63 -90 98
-124 48z m84 -13 c21 -25 -1 -38 -38 -22 -25 10 -29 16 -20 25 17 17 43 15 58
-3z"/>
<path d="M8694 5506 c-9 -24 4 -48 23 -44 12 2 18 12 18 28 0 29 -32 41 -41
16z m26 -10 c0 -3 -4 -8 -10 -11 -5 -3 -10 -1 -10 4 0 6 5 11 10 11 6 0 10 -2
10 -4z"/>
<path d="M2064 5375 c-19 -29 -11 -60 18 -76 49 -26 100 40 63 81 -25 27 -61
25 -81 -5z m64 -26 c4 -30 -22 -46 -44 -28 -17 14 -18 31 -2 47 19 19 43 9 46
-19z"/>
<path d="M2670 5375 c0 -14 6 -25 13 -25 21 0 27 11 16 31 -14 27 -29 23 -29
-6z"/>
<path d="M1296 5273 c-9 -24 13 -53 39 -53 18 0 26 7 31 24 3 14 3 29 0 35 -9
15 -64 10 -70 -6z m44 -21 c-7 -3 -16 0 -18 7 -2 6 -9 8 -14 5 -7 -4 -8 -2 -4
4 5 9 13 9 29 0 17 -8 18 -13 7 -16z"/>
<path d="M940 5243 c-137 -71 -86 -283 68 -283 70 0 142 72 142 142 0 43 -30
106 -60 128 -41 29 -107 35 -150 13z m136 -28 c54 -35 66 -120 25 -174 -20
-26 -24 -27 -107 -36 -46 -4 -53 -2 -80 26 -25 26 -29 38 -28 86 0 51 3 58 38
90 34 32 43 35 82 30 24 -2 55 -12 70 -22z"/>
<path d="M972 5148 c-26 -26 -6 -68 33 -68 41 0 58 36 29 64 -18 19 -45 21
-62 4z m53 -28 c0 -8 -8 -16 -17 -18 -13 -2 -18 3 -18 18 0 15 5 20 18 18 9
-2 17 -10 17 -18z"/>
<path d="M9082 5188 c-27 -27 -3 -73 35 -66 27 5 25 72 -2 76 -11 1 -26 -3
-33 -10z m38 -33 c-12 -15 -30 -12 -30 6 0 5 10 9 21 9 18 0 19 -2 9 -15z"/>
<path d="M1590 5174 c0 -6 7 -19 16 -30 14 -18 14 -18 3 6 -14 31 -19 36 -19
24z"/>
<path d="M2790 5099 c0 -5 5 -7 10 -4 6 3 10 8 10 11 0 2 -4 4 -10 4 -5 0 -10
-5 -10 -11z"/>
<path d="M1533 5049 c-65 -19 -66 -84 -3 -124 39 -25 65 -53 117 -128 32 -46
33 -47 89 -47 69 0 68 6 -10 94 -63 72 -100 90 -66 34 50 -83 52 -88 36 -88
-9 0 -34 27 -56 61 -23 33 -64 76 -91 95 -27 20 -49 42 -49 49 0 39 87 52 136
20 14 -9 28 -15 30 -12 7 7 -46 47 -62 47 -7 0 -18 2 -26 4 -7 2 -28 0 -45 -5z"/>
<path d="M9310 5020 c-11 -11 -21 -28 -21 -37 -1 -10 -2 -22 -3 -28 -1 -5 -38
-46 -84 -90 -45 -44 -162 -167 -259 -272 -125 -137 -183 -193 -199 -193 -48 0
-104 -73 -104 -137 0 -38 33 -89 69 -108 119 -61 240 79 166 192 -9 13 -30 32
-46 42 l-30 18 188 199 c103 110 215 230 247 267 48 54 65 67 88 67 45 0 68
17 68 50 0 19 -7 33 -19 40 -28 14 -38 13 -61 -10z m45 -10 c3 -5 1 -10 -4
-10 -6 0 -11 5 -11 10 0 6 2 10 4 10 3 0 8 -4 11 -10z m-524 -643 c25 -19 39
-53 39 -92 0 -29 -8 -45 -35 -72 -32 -32 -40 -35 -76 -30 -50 7 -77 30 -85 73
-14 77 28 134 98 134 24 0 50 -6 59 -13z"/>
<path d="M8752 4299 c2 -6 8 -10 13 -10 5 0 11 4 13 10 2 6 -4 11 -13 11 -9 0
-15 -5 -13 -11z"/>
<path d="M9060 5005 c0 -13 4 -14 20 -5 11 6 20 13 20 15 0 3 -9 5 -20 5 -11
0 -20 -7 -20 -15z"/>
<path d="M1316 4943 c-12 -12 -6 -43 9 -43 8 0 15 9 15 19 0 21 -13 34 -24 24z"/>
<path d="M2384 4835 c3 -9 6 -19 6 -21 0 -2 9 -4 20 -4 28 0 25 15 -6 29 -23
10 -26 10 -20 -4z"/>
<path d="M9236 4574 c-21 -21 -20 -37 3 -58 13 -11 27 -15 40 -11 28 9 29 60
2 75 -25 13 -27 13 -45 -6z m34 -29 c0 -8 -7 -15 -15 -15 -16 0 -20 12 -8 23
11 12 23 8 23 -8z"/>
<path d="M9049 4196 c-118 -42 -180 -173 -134 -284 21 -49 51 -79 107 -108 81
-41 175 -25 241 42 44 44 60 83 60 144 0 98 -66 186 -159 209 -54 14 -70 13
-115 -3z m151 -45 c64 -32 103 -116 80 -175 -10 -28 -11 -28 -25 -10 -15 18
-15 18 -8 -1 6 -19 5 -19 -13 -3 -19 16 -20 16 -39 -12 -24 -35 -66 -53 -98
-40 -19 7 -17 9 15 9 49 1 78 32 78 83 0 49 -35 88 -80 88 -69 0 -104 -85 -59
-146 l21 -29 -27 30 c-32 34 -49 39 -66 19 -10 -12 -14 -12 -25 3 -31 42 -5
126 53 170 59 45 121 50 193 14z m-52 -142 c2 -14 -4 -31 -13 -39 -23 -19 -65
2 -65 33 0 32 9 38 45 35 24 -2 31 -8 33 -29z m-154 -84 c3 -8 1 -15 -4 -15
-6 0 -10 7 -10 15 0 8 2 15 4 15 2 0 6 -7 10 -15z"/>
<path d="M8533 3814 c-37 -18 -63 -67 -63 -118 0 -44 40 -92 87 -105 63 -18
143 47 143 116 0 41 -35 92 -75 109 -43 18 -52 17 -92 -2z m81 -24 c14 -5 29
-18 35 -28 9 -17 7 -20 -17 -20 -15 0 -35 4 -45 10 -11 5 -31 5 -53 -1 -36
-10 -36 -10 -18 11 31 34 60 43 98 28z"/>
<path d="M8818 3613 c7 -3 16 -2 19 1 4 3 -2 6 -13 5 -11 0 -14 -3 -6 -6z"/>
<path d="M8695 3571 c-79 -39 -66 -39 16 -1 35 16 60 29 54 30 -5 0 -37 -13
-70 -29z"/>
<path d="M8842 3548 c-33 -33 10 -86 54 -66 28 13 34 62 8 72 -25 9 -49 7 -62
-6z m56 -22 c5 -24 -10 -38 -31 -30 -17 6 -23 35 -10 48 12 12 38 1 41 -18z"/>
<path d="M1121 3531 c-13 -23 -5 -48 19 -61 27 -14 52 10 48 45 -2 24 -8 31
-30 33 -18 2 -30 -3 -37 -17z m48 -37 c-14 -14 -17 -14 -29 0 -10 13 -10 19 0
32 12 14 15 14 29 0 14 -15 14 -17 0 -32z"/>
<path d="M1360 3530 c-39 -39 -11 -110 43 -110 27 0 67 34 67 56 0 20 -54 74
-74 74 -9 0 -25 -9 -36 -20z m54 -16 c23 -9 19 -41 -6 -47 -27 -7 -38 -1 -38
22 0 29 14 37 44 25z"/>
<path d="M9200 3446 c0 -33 -28 -63 -70 -75 -33 -9 -34 -9 -7 -10 37 -1 87 47
87 83 0 14 -2 26 -5 26 -3 0 -5 -11 -5 -24z"/>
<path d="M8626 3339 c-15 -12 -26 -30 -26 -45 0 -29 32 -64 59 -64 31 0 64 33
64 65 0 29 -32 65 -58 65 -7 0 -24 -9 -39 -21z m64 -28 c7 -15 6 -23 -5 -35
-17 -17 -40 -12 -49 10 -15 39 34 62 54 25z"/>
<path d="M1389 3251 c-50 -40 -13 -141 51 -141 15 0 39 9 54 21 43 34 32 95
-24 124 -38 20 -53 19 -81 -4z m85 -30 c31 -35 -3 -84 -42 -61 -15 8 -14 9 4
10 11 0 21 6 21 14 0 10 -7 12 -28 6 -40 -12 -52 5 -23 34 21 21 47 20 68 -3z"/>
<path d="M9005 3035 c-52 -19 -111 -82 -125 -135 -20 -74 3 -144 64 -198 68
-59 148 -64 229 -12 136 86 103 307 -51 350 -48 13 -68 12 -117 -5z m132 -31
c45 -22 83 -73 89 -121 4 -30 3 -35 -6 -20 -7 10 -23 17 -42 17 -20 0 -39 9
-54 25 -28 31 -71 33 -115 6 -17 -11 -37 -17 -44 -15 -14 6 -28 -75 -18 -103
6 -16 5 -16 -10 -5 -9 8 -16 17 -15 20 1 4 -2 15 -7 25 -14 33 2 98 32 129 53
57 124 73 190 42z"/>
<path d="M1175 3017 c-93 -53 -131 -176 -83 -267 75 -139 257 -147 346 -16 26
40 32 58 32 103 0 84 -52 166 -123 192 -48 19 -128 13 -172 -12z m162 -16 c87
-40 125 -150 74 -218 -26 -35 -69 -55 -49 -23 6 9 8 25 4 35 -6 16 -10 15 -36
-10 -27 -26 -36 -29 -98 -28 -37 1 -70 2 -74 2 -25 3 -48 44 -48 87 0 83 42
140 120 162 50 14 60 14 107 -7z m-12 -281 c-3 -5 -30 -9 -58 -8 l-52 1 55 7
c30 4 56 7 58 8 2 1 0 -2 -3 -8z"/>
<path d="M1220 2890 c-27 -27 -25 -56 5 -85 46 -47 118 -25 118 35 0 62 -79
94 -123 50z m80 -45 c0 -8 -9 -15 -20 -15 -11 0 -20 7 -20 15 0 8 9 15 20 15
11 0 20 -7 20 -15z"/>
<path d="M1580 2595 c-7 -9 -11 -17 -9 -20 3 -2 10 5 17 15 14 24 10 26 -8 5z"/>
<path d="M1606 2574 c-5 -12 -2 -15 10 -10 8 3 18 6 20 6 2 0 4 5 4 10 0 16
-27 11 -34 -6z"/>
<path d="M1571 2540 c-1 -26 15 -50 33 -50 5 0 3 6 -6 13 -9 6 -19 23 -21 37
l-4 25 -2 -25z"/>
<path d="M1661 2507 c-13 -21 -12 -21 5 -5 10 10 16 20 13 22 -3 3 -11 -5 -18
-17z"/>
<path d="M1383 2505 c-39 -17 -53 -42 -53 -95 0 -33 6 -48 29 -71 65 -65 176
-16 173 77 -2 45 -16 71 -52 89 -35 18 -55 18 -97 0z m102 -30 c14 -13 25 -36
25 -50 0 -35 -42 -75 -79 -75 -16 0 -33 5 -36 10 -4 6 -11 7 -17 4 -6 -4 -8
-2 -4 4 3 5 2 12 -4 14 -5 1 -12 17 -16 35 -5 26 -1 37 19 57 34 34 80 34 112
1z"/>
<path d="M1396 2464 c-28 -28 -13 -94 22 -94 13 0 12 3 -6 16 -31 21 -26 64 8
81 17 9 20 13 8 13 -9 0 -24 -7 -32 -16z"/>
<path d="M1446 2431 c-4 -7 -5 -15 -2 -18 9 -9 19 4 14 18 -4 11 -6 11 -12 0z"/>
<path d="M1449 2383 c-13 -16 -12 -17 4 -4 9 7 17 15 17 17 0 8 -8 3 -21 -13z"/>
<path d="M8914 2430 c-55 -22 -70 -95 -29 -135 33 -33 70 -32 106 4 35 35 37
71 7 105 -27 29 -55 38 -84 26z m66 -35 c10 -12 9 -20 -4 -40 -20 -30 -46 -32
-70 -6 -14 15 -15 24 -6 40 13 25 61 29 80 6z"/>
<path d="M8632 2418 c-7 -7 -12 -21 -12 -33 0 -43 54 -62 81 -28 13 15 12 15
-9 2 -16 -10 -26 -11 -40 -3 -25 16 -21 46 8 61 22 11 23 13 5 13 -12 0 -26
-5 -33 -12z"/>
<path d="M1640 2390 c-15 -29 -3 -59 26 -66 30 -8 54 11 54 40 0 46 -59 64
-80 26z"/>
<path d="M1597 2193 c-12 -11 -7 -33 8 -39 20 -8 45 13 38 32 -5 14 -34 19
-46 7z m33 -18 c0 -8 -4 -15 -9 -15 -13 0 -22 16 -14 24 11 11 23 6 23 -9z"/>
<path d="M8548 2107 c-93 -79 -44 -217 78 -217 29 0 44 8 75 39 34 34 39 44
39 86 0 40 -5 52 -34 81 -29 29 -41 34 -82 34 -36 0 -56 -6 -76 -23z m127 -22
c26 -25 32 -68 15 -95 -8 -12 -10 -12 -10 -1 0 21 -59 73 -78 69 -9 -2 -21
-13 -27 -26 -5 -12 -15 -20 -22 -18 -6 3 -14 -5 -16 -17 -2 -12 -5 -4 -5 18
-2 45 3 54 38 78 35 24 77 21 105 -8z"/>
<path d="M1646 2034 c-25 -24 -20 -61 10 -81 24 -15 29 -15 53 -2 49 28 32 99
-24 99 -13 0 -31 -7 -39 -16z m72 -33 c2 -13 -1 -28 -7 -34 -8 -8 -11 -6 -11
6 0 19 -15 23 -25 7 -11 -18 -25 -11 -25 13 0 31 9 39 40 35 18 -2 26 -10 28
-27z"/>
<path d="M1781 1697 c-23 -28 -23 -71 -1 -100 26 -32 58 -35 88 -7 28 26 29
73 2 100 -23 23 -72 26 -89 7z m73 -23 c23 -22 20 -41 -9 -60 -30 -19 -55 -6
-55 30 0 42 36 59 64 30z"/>
<path d="M8322 1640 c-37 -23 -72 -75 -72 -107 0 -34 47 -83 80 -83 22 0 39
13 79 61 28 33 51 70 51 80 0 29 -44 69 -77 69 -15 0 -43 -9 -61 -20z m99 -22
c10 -19 9 -20 -7 -14 -11 4 -31 10 -46 13 -35 7 -26 23 12 23 20 0 33 -7 41
-22z m-69 -45 c24 -22 23 -39 -4 -58 -21 -14 -24 -14 -35 2 -7 9 -13 26 -13
38 0 38 22 46 52 18z"/>
<path d="M7963 1454 c-15 -39 38 -67 60 -32 8 12 7 21 -2 32 -17 21 -50 20
-58 0z m45 -16 c-6 -18 -28 -21 -28 -4 0 9 7 16 16 16 9 0 14 -5 12 -12z"/>
<path d="M2937 1303 c-4 -3 -7 -12 -7 -20 0 -15 26 -18 34 -4 7 11 -18 33 -27
24z"/>
<path d="M7275 1300 c-8 -14 3 -30 21 -30 8 0 14 9 14 20 0 21 -24 28 -35 10z"/>
<path d="M3353 1264 c-15 -24 -15 -29 -2 -53 11 -20 22 -26 49 -26 27 0 38 6
49 26 13 24 13 29 -2 53 -12 18 -26 26 -47 26 -21 0 -35 -8 -47 -26z m67 -10
c11 -12 10 -18 -3 -32 -16 -15 -18 -15 -34 0 -13 14 -14 20 -3 32 7 9 16 16
20 16 4 0 13 -7 20 -16z"/>
<path d="M3384 1249 c-10 -17 13 -36 27 -22 12 12 4 33 -11 33 -5 0 -12 -5
-16 -11z"/>
<path d="M6790 1247 c-35 -17 -49 -77 -27 -110 49 -75 172 -11 138 71 -12 28
-47 52 -74 52 -7 0 -23 -6 -37 -13z"/>
<path d="M7556 1183 c-6 -14 -5 -15 5 -6 7 7 10 15 7 18 -3 3 -9 -2 -12 -12z"/>
</g>
</svg>
